<svg width="73" height="72" viewBox="0 0 73 72" fill="none" xmlns="http://www.w3.org/2000/svg">
<path d="M36.25 -0.000488281C46.1623 -0.000488281 55.1366 4.01829 61.6331 10.5134C68.1296 17.0099 72.147 25.9842 72.147 35.8965C72.147 45.8074 68.1282 54.7831 61.6331 61.2796C55.1366 67.7761 46.1623 71.7935 36.25 71.7935C26.3377 71.7935 17.3634 67.7747 10.8669 61.2796C4.37181 54.7831 0.353027 45.8088 0.353027 35.8965C0.353027 25.9842 4.3704 17.0099 10.8669 10.5134C17.3634 4.01829 26.3391 -0.000488281 36.25 -0.000488281ZM33.6811 37.2104C32.9814 36.5892 32.1036 36.0521 31.9844 34.7607L31.9101 34.7621C31.7362 34.7593 31.5694 34.72 31.4123 34.6303C31.1627 34.4872 30.986 34.2433 30.8669 33.967C30.6159 33.3879 30.4167 31.8651 31.0505 31.4304L30.9314 31.3519L30.9173 31.1822C30.8935 30.8765 30.8879 30.5049 30.8809 30.1151C30.8584 28.6834 30.829 26.9489 29.6778 26.6011L29.1842 26.4511L29.5095 26.0487C30.4392 24.8988 31.4109 23.8948 32.3925 23.1222C33.5002 22.25 34.6276 21.6681 35.7312 21.4998C36.8642 21.3288 37.9621 21.5896 38.9773 22.4085C39.276 22.6511 39.5677 22.9413 39.8481 23.2835C40.9306 23.3872 41.8154 23.9706 42.4478 24.8021C42.825 25.2999 43.1111 25.886 43.2934 26.5114C43.4757 27.134 43.5542 27.7944 43.5205 28.4465C43.4588 29.6145 43.0326 30.7545 42.1716 31.586C42.323 31.5903 42.4661 31.6253 42.5923 31.6926C43.0718 31.9506 43.0872 32.5073 42.961 32.9756C42.8363 33.3669 42.6778 33.8198 42.5292 34.2012C42.3469 34.7144 42.0819 34.8112 41.5686 34.7565C41.5434 36.0115 40.6249 36.5261 39.8397 37.2594C41.7579 40.8421 49.8951 39.9587 49.8951 47.0806H23.6047C23.6047 39.9587 31.5539 40.9375 33.6923 37.2132L33.6811 37.2104ZM20.8928 37.6198C20.7866 37.5057 20.6878 37.3848 20.597 37.258C20.3796 36.9594 20.1749 36.6467 19.9786 36.334L18.997 34.7719C18.624 34.2292 18.4291 33.7328 18.4291 33.3388C18.4291 32.9462 18.6507 32.4344 19.0952 32.3194C19.0587 31.7319 19.0363 31.1345 19.0363 30.5442C19.0363 30.1936 19.0433 29.8403 19.0559 29.4939C19.0755 29.2752 19.1148 29.0578 19.1737 28.8461C19.4465 27.9566 20.0415 27.201 20.8423 26.7273C21.126 26.5488 21.4296 26.4038 21.7468 26.2954C22.3175 26.0795 22.0427 25.2087 22.6708 25.1961C24.139 25.1568 26.5522 26.4146 27.4931 27.4341C28.0936 28.0966 28.4351 28.9534 28.455 29.8473L28.3961 32.4176C28.6569 32.4821 28.8603 32.6854 28.9262 32.9462C29.0033 33.2617 28.9262 33.6922 28.6513 34.3008C28.6513 34.3204 28.6303 34.3204 28.6303 34.3414L27.5113 36.1853C27.2575 36.6018 26.9953 37.0281 26.7008 37.4179C26.3517 37.8862 26.0642 37.8021 26.3629 38.2494C26.6125 38.593 26.9028 38.8692 27.2225 39.102C24.9074 40.2434 22.8237 41.7942 22.3722 45.1918H13.6251C13.6251 39.3333 18.8484 41.1941 20.9882 38.2494C21.235 37.8876 21.1691 37.9143 20.8928 37.6198ZM46.5269 37.8834C46.4245 37.7741 46.3292 37.6563 46.2423 37.5343C46.0319 37.2454 45.8342 36.9453 45.6449 36.6439L44.697 35.1351C44.4698 34.8056 44.3114 34.4929 44.2259 34.2124C44.2918 34.0245 44.3563 33.8366 44.4208 33.6417C44.4488 33.573 44.4741 33.5015 44.4923 33.4286C44.5428 33.2449 44.5792 33.0514 44.6003 32.8508C44.6577 32.8158 44.7222 32.7878 44.7924 32.7695C44.7573 32.2016 44.7349 31.6253 44.7349 31.0546C44.7349 30.8793 44.7377 30.7026 44.7405 30.5274C44.92 30.0001 45.0293 29.4491 45.0756 28.8924C45.3827 28.2628 45.8693 27.7327 46.4778 27.371C46.7513 27.1999 47.0457 27.0583 47.3514 26.9545C47.9025 26.747 47.6361 25.9056 48.2432 25.893C49.6595 25.8566 51.9886 27.0695 52.8972 28.0538C53.4758 28.6939 53.8052 29.5204 53.8255 30.3829L53.768 32.8635C54.019 32.9252 54.2167 33.1215 54.2798 33.3739C54.3555 33.6782 54.2798 34.0932 54.0134 34.6808C54.0134 34.7004 53.9952 34.7004 53.9952 34.72L52.9155 36.4994C52.6701 36.9019 52.4177 37.3127 52.133 37.6899C51.7951 38.1414 51.5174 38.0601 51.8049 38.492C53.8732 41.3329 58.8749 39.5409 58.8749 45.1918H51.1725C50.7041 41.7311 48.5167 40.1649 46.1399 39.015C46.3166 38.8594 46.4778 38.6869 46.6195 38.492C46.8564 38.1429 46.7947 38.1681 46.5269 37.8834ZM38.9184 4.92553V10.2638H34.242V4.87645C26.4583 5.37284 19.4527 8.73397 14.2701 13.9166C8.99635 19.1904 5.60857 26.3501 5.20613 34.2994H11.5442V38.9744H5.31691C6.03905 46.329 9.32587 52.9335 14.2701 57.8764C19.4527 63.0604 26.4583 66.4215 34.242 66.9165V62.3396H38.9184V66.8674C46.4372 66.228 53.1945 62.9118 58.2299 57.8764C63.1741 52.9335 66.461 46.329 67.1831 38.9744H61.6163V34.2994H67.2939C66.8914 26.3501 63.5037 19.1904 58.2299 13.9166C53.1945 8.88121 46.4372 5.56494 38.9184 4.92553Z" fill="#FFF5FB"/>
</svg>
