<svg width="64" height="65" viewBox="0 0 64 65" fill="none" xmlns="http://www.w3.org/2000/svg">
<path d="M20.7526 27.682C21.5466 27.682 22.1985 27.0361 22.1985 26.2361C22.1985 25.4302 21.5526 24.7842 20.7526 24.7842C19.9526 24.7842 19.3066 25.4302 19.3066 26.2361C19.3066 27.0361 19.9526 27.682 20.7526 27.682ZM29.7126 27.682C30.5185 27.682 31.1644 27.0361 31.1644 26.2361C31.1644 25.4302 30.5185 24.7842 29.7126 24.7842C28.9126 24.7842 28.2666 25.4302 28.2666 26.2361C28.2666 27.0361 28.9185 27.682 29.7126 27.682ZM22.1274 33.525C22.1333 33.5428 22.1392 33.5487 22.157 33.5605C22.9985 34.3665 24.1007 34.8109 25.2563 34.8109C26.4118 34.8109 27.514 34.3665 28.3555 33.5605C28.3733 33.5428 28.3792 33.5368 28.3852 33.525C28.6459 33.2346 28.6459 32.7902 28.3674 32.5057C28.0829 32.2094 27.6148 32.1976 27.3185 32.482C26.1926 33.5605 24.314 33.5605 23.194 32.482C22.8978 32.1976 22.4296 32.2035 22.1333 32.5057C21.8666 32.7842 21.8607 33.2346 22.1274 33.525ZM25.2563 30.4672C25.6652 30.4672 26.0029 30.1294 26.0029 29.7205V27.2079C26.0029 26.7931 25.6652 26.4613 25.2563 26.4613C24.8474 26.4613 24.5096 26.7872 24.5096 27.2079V29.7265C24.5155 30.1354 24.8474 30.4672 25.2563 30.4672Z" fill="black"/>
<path d="M55.7037 46.8642C55.68 46.1117 55.2948 45.4361 54.7141 45.0094C55.0637 44.5176 55.2237 43.9072 55.1467 43.2968C54.9926 42.0998 53.9378 41.1991 52.6934 41.1991H47.4667L47.9111 39.7294C47.9348 39.6642 47.9467 39.5872 47.9467 39.5161V38.5502C52 38.0939 55.1526 34.6628 55.1526 30.485C55.1526 25.9872 51.5082 22.3487 47.0282 22.3487C42.5363 22.3487 38.8919 25.9813 38.8919 30.485C38.8919 33.1161 40.1423 35.4509 42.086 36.9442V39.2317L40.3082 41.8983C39.8934 41.2583 39.1763 40.8435 38.3585 40.8435H37.6889C37.1023 40.5531 36.4682 40.328 35.7985 40.1976L32.0534 39.4213C32.0237 39.4154 31.9882 39.4035 31.9585 39.4035L30.7674 39.1487C30.7615 39.1487 30.7437 39.1428 30.7319 39.1428C30.7141 39.1368 30.7023 39.1368 30.6845 39.125C30.24 39.0302 29.8193 38.7694 29.5171 38.408C29.4874 38.3724 29.4578 38.3309 29.4341 38.2954C32.3378 36.8376 34.3823 33.8983 34.5719 30.4731V30.4672C36.2726 30.088 37.523 28.5887 37.523 26.7754C37.523 26.1176 37.3452 25.5072 37.0489 24.968C37.0489 24.962 37.0548 24.9561 37.0548 24.9502C37.3452 23.9131 37.4993 22.8168 37.4993 21.685C37.4993 14.9294 32 9.43018 25.2504 9.43018C18.4948 9.43018 12.9956 14.9294 12.9956 21.685C12.9956 22.8168 13.1497 23.9131 13.44 24.9502C13.44 24.9561 13.446 24.962 13.446 24.968C13.1556 25.5072 12.9719 26.1176 12.9719 26.7754C12.9719 28.5887 14.2223 30.088 15.9289 30.4672V30.4731C16.1126 33.8983 18.1571 36.8376 21.0548 38.2954C20.7823 38.6746 20.3911 38.965 19.923 39.1013L18.5541 39.3976C18.5185 39.3976 18.4771 39.4035 18.4356 39.4154L14.6963 40.1798C10.9867 40.9442 8.29633 44.2568 8.29633 48.0376V52.4168C8.29633 54.5028 9.98521 56.2035 12.0711 56.2035H33.8371C34.0919 56.3102 34.3763 56.3576 34.6667 56.3576H38.3526C38.7852 56.3576 39.1941 56.2391 39.5378 56.0317H39.5437C39.9467 55.9072 40.32 55.7117 40.646 55.4746L41.8548 55.9487C41.9437 55.9783 42.0326 56.002 42.1334 56.002H50.7734C52.0119 56.002 53.0667 55.1013 53.2148 53.9042C53.2741 53.4302 53.1911 52.9502 52.9837 52.5235C53.9082 52.1857 54.5837 51.3324 54.6134 50.325C54.6311 49.8924 54.5245 49.4776 54.323 49.1102C54.5837 48.9917 54.8148 48.8198 55.0223 48.6124C55.4785 48.1442 55.7156 47.522 55.7037 46.8642ZM53.9497 47.5694C53.7778 47.7531 53.5408 47.8539 53.2919 47.8539H50.1156C49.7067 47.8539 49.3689 48.1917 49.3689 48.6005C49.3689 49.0094 49.7067 49.3472 50.1156 49.3472H52.243C52.48 49.3531 52.6993 49.4539 52.8593 49.6257C53.0371 49.8035 53.126 50.0405 53.12 50.2954C53.1023 50.7872 52.6637 51.1902 52.1363 51.1902H48.6934C48.2785 51.1902 47.9467 51.5161 47.9467 51.9368C47.9467 52.3457 48.2726 52.6835 48.6934 52.6835H50.8148C51.0815 52.6835 51.3363 52.7961 51.5082 52.9976C51.686 53.1991 51.763 53.4598 51.7334 53.7265C51.6741 54.1709 51.2474 54.5265 50.7674 54.5265H42.2697L41.7008 54.2954L40.6815 53.8924V52.6717C40.6874 52.5946 40.6993 52.5235 40.6993 52.4405V48.0554C40.6993 47.9309 40.6934 47.8005 40.6815 47.6761V43.6109L40.7882 43.5754C40.7941 43.5754 40.7941 43.5754 40.806 43.5694C40.9541 43.5161 41.0845 43.4154 41.1793 43.285L43.4489 39.8835C43.5319 39.765 43.5734 39.6228 43.5734 39.4746V36.3161C43.5734 35.9902 43.84 35.7176 44.1719 35.7176C45.4282 35.7176 46.4593 36.7428 46.4593 38.005V39.4213L45.7423 41.7265C45.6771 41.9517 45.7185 42.1946 45.8548 42.3842C45.9971 42.5798 46.2223 42.6924 46.4593 42.6924H52.6934C53.1793 42.6924 53.6 43.042 53.6593 43.4924C53.6948 43.7591 53.6119 44.0198 53.446 44.2213C53.2682 44.4168 53.0134 44.5354 52.7526 44.5354H50.5304C50.1215 44.5354 49.7837 44.8613 49.7837 45.282C49.7837 45.6909 50.1215 46.0287 50.5304 46.0287H53.2208C53.76 46.0287 54.1985 46.4257 54.2104 46.9176C54.2223 47.1546 54.1334 47.3917 53.9497 47.5694ZM39.1941 43.1605V54.0346C39.1941 54.0524 39.1941 54.0702 39.1882 54.0879C39.1823 54.3191 39.0697 54.5205 38.9037 54.6628C38.8385 54.6805 38.7674 54.6924 38.6963 54.6924L38.8089 54.7398C38.6726 54.8228 38.5186 54.8761 38.3526 54.8761H34.6667C34.4889 54.8761 34.3171 54.8168 34.1808 54.722C33.9734 54.5739 33.8311 54.325 33.8311 54.0465V43.1605C33.8311 42.6983 34.2045 42.3191 34.6667 42.3191H38.3585C38.5956 42.3191 38.8148 42.4257 38.9689 42.5798C39.1052 42.728 39.1941 42.9413 39.1941 43.1605ZM44.0534 29.1398L45.3215 28.962C45.5467 28.9265 45.7363 28.7842 45.8371 28.5828L46.406 27.4331C46.6608 26.9176 47.3897 26.9176 47.6445 27.4331L48.2134 28.5828C48.32 28.7842 48.5097 28.9265 48.7348 28.962L50.003 29.1398C50.5719 29.2228 50.7911 29.922 50.3823 30.3191L49.4637 31.2139C49.3097 31.368 49.2326 31.5991 49.2682 31.8242L49.4815 33.0805C49.5763 33.6494 48.9837 34.0702 48.4741 33.8094L47.3423 33.2109C47.1467 33.1042 46.9037 33.1042 46.7023 33.2109L45.5704 33.8094C45.0608 34.0702 44.4741 33.6435 44.5748 33.0805L44.7882 31.8242C44.8237 31.5991 44.7526 31.368 44.5867 31.2139L43.6741 30.3191C43.2652 29.922 43.4845 29.2228 44.0534 29.1398ZM17.3985 29.9398V23.605C17.3985 23.5517 17.3926 23.4924 17.3748 23.4391C17.3393 22.7042 17.3393 20.0376 19.2237 19.0539C20.0237 18.6391 21.0193 18.7754 21.6889 19.4035C22.643 20.2924 24.403 21.4124 27.3956 21.7502C27.7689 21.7857 28.083 21.5724 28.1956 21.2287C28.2785 20.9739 28.2134 20.7013 28.0297 20.5057C29.126 20.962 30.4 21.2939 31.7926 21.3176C32.0889 21.2939 32.3793 21.1339 32.4978 20.8435C32.6104 20.5531 32.5334 20.2272 32.3023 20.0139C31.7985 19.5576 30.6785 18.4435 29.9082 17.3235C30.5541 17.602 31.2948 18.0524 31.9052 18.7813C32.8889 19.9605 33.286 21.5961 33.0904 23.7117V29.9339C33.0904 30.3487 33.0608 30.7635 32.9956 31.1546C32.6163 33.5961 31.0934 35.6761 29.0015 36.8257C28.7704 36.9502 28.5334 37.0628 28.2963 37.1694C27.5023 37.5072 26.643 37.7146 25.7423 37.7739H24.7467C23.8519 37.7146 22.9985 37.5072 22.1985 37.1754C21.9615 37.0687 21.7245 36.9502 21.4934 36.8317C19.4015 35.6761 17.8785 33.608 17.4993 31.1546C17.4282 30.7635 17.3985 30.3546 17.3985 29.9398ZM21.9734 39.5102C22.1571 39.3146 22.3171 39.0954 22.4593 38.8642C23.3363 39.1309 24.2785 39.2791 25.2445 39.2791H25.363C26.2934 39.2613 27.1882 39.125 28.0356 38.8524C28.1245 39.0242 28.2371 39.1783 28.3615 39.3383C28.4208 39.4154 28.486 39.4865 28.563 39.5635C28.6163 39.6168 28.6697 39.6702 28.7171 39.7117C28.806 39.8005 28.9126 39.8835 29.0134 39.9546C29.0726 40.0079 29.1378 40.0494 29.2148 40.0968C29.2623 40.1265 29.3037 40.1502 29.3511 40.1798L25.363 45.6494L25.3037 45.7324L21.2385 40.1324C21.2741 40.1087 21.3215 40.0791 21.3571 40.0494C21.3926 40.0257 21.4223 40.002 21.4637 39.9724C21.5171 39.9368 21.5704 39.8894 21.6178 39.8479C21.683 39.8005 21.7423 39.7531 21.8015 39.6939C21.8608 39.6287 21.92 39.5694 21.9734 39.5102ZM25.363 54.7161V47.7354C25.5763 47.7176 25.7778 47.6168 25.9082 47.4391L30.8386 40.6835L31.7452 40.8672C31.7808 40.8731 31.8223 40.885 31.8519 40.885L33.4104 41.205C32.7704 41.6139 32.3437 42.3368 32.3437 43.1665V54.0405C32.3437 54.2776 32.3793 54.5028 32.4386 54.7161H25.363Z" fill="black"/>
<path d="M36.5155 51.368C35.9348 51.368 35.4607 51.8361 35.4607 52.4287C35.4607 53.0154 35.9348 53.4835 36.5155 53.4835C36.9303 53.4835 37.2977 53.2465 37.4637 52.8969C37.5407 52.7546 37.5762 52.6006 37.5762 52.4287C37.5762 52.2569 37.5407 52.1028 37.4637 51.9606C37.2977 51.6109 36.9303 51.368 36.5155 51.368Z" fill="black"/>
</svg>
