<svg width="73" height="58" viewBox="0 0 73 58" fill="none" xmlns="http://www.w3.org/2000/svg">
<path d="M53.7832 38.2773C53.5547 38.1191 53.2969 38.0488 53.0332 38.1016C52.7695 38.1543 52.5469 38.2949 52.3887 38.5176L51.4981 39.7715C51.1816 39.6309 50.8535 39.5254 50.502 39.4375C50.1504 39.3496 49.8223 39.2793 49.4707 39.2266L49.1895 37.5859C49.1367 37.3047 48.9961 37.0996 48.791 36.9414C48.5625 36.7832 48.3223 36.7305 48.041 36.7832L45.9844 37.1523C45.7207 37.2051 45.5156 37.3281 45.3398 37.5566C45.1816 37.7852 45.1113 38.0254 45.1641 38.3066L45.4277 39.8066C45.0938 39.9473 44.7832 40.1055 44.4844 40.293C44.1856 40.4688 43.8926 40.6797 43.6289 40.8848L42.2344 39.9238C42.0059 39.7656 41.7656 39.6953 41.502 39.7481C41.2383 39.8008 41.0156 39.9414 40.8574 40.1699L39.668 41.8633C39.5098 42.0918 39.4395 42.3496 39.4922 42.6133C39.5449 42.8945 39.6855 43.0996 39.9141 43.2578L41.168 44.1484C41.0274 44.4648 40.9219 44.793 40.834 45.1445C40.7461 45.4961 40.6758 45.8242 40.6231 46.1758L38.9824 46.457C38.7012 46.5098 38.4961 46.6504 38.3379 46.8555C38.1797 47.084 38.127 47.3242 38.1797 47.6055L38.5488 49.6621C38.6016 49.9258 38.7246 50.1309 38.9473 50.3066C39.1758 50.4648 39.416 50.5352 39.6973 50.4824L41.1973 50.2188C41.3379 50.5527 41.4961 50.8633 41.6836 51.1621C41.8594 51.4609 42.0703 51.7539 42.2754 52.0352L41.3145 53.4121C41.1563 53.6406 41.0859 53.8809 41.1387 54.1445C41.1914 54.4082 41.332 54.6309 41.5547 54.7891L43.2656 55.9902C43.4941 56.1484 43.752 56.2012 44.0156 56.1484C44.2793 56.0957 44.502 55.9727 44.6777 55.75L45.5684 54.4785C45.8848 54.6191 46.2129 54.7246 46.5645 54.8125C46.916 54.9004 47.2441 54.9707 47.5957 55.0234L47.877 56.6641C47.9297 56.9453 48.0703 57.1504 48.2754 57.3086C48.5039 57.4668 48.7441 57.5195 49.0254 57.4668L51.082 57.0977C51.3457 57.0449 51.5508 56.9219 51.7266 56.6992C51.8848 56.4707 51.9551 56.2305 51.9024 55.9492L51.6387 54.4492C51.9727 54.3086 52.2832 54.1504 52.582 53.9629C52.8809 53.7871 53.1738 53.582 53.4551 53.3711L54.832 54.332C55.0606 54.4902 55.3008 54.5606 55.582 54.5078C55.8633 54.4551 56.0684 54.3145 56.2266 54.0918L57.4277 52.3809C57.5859 52.1523 57.6387 51.8945 57.5859 51.6309C57.5332 51.3672 57.4102 51.1445 57.1816 50.9688L55.9102 50.0957C56.0508 49.7793 56.1563 49.4512 56.2441 49.0996C56.332 48.7481 56.4023 48.4199 56.4551 48.0684L58.0957 47.7871C58.377 47.7344 58.582 47.5938 58.7402 47.3828C58.8984 47.1543 58.9512 46.9141 58.8984 46.6328L58.5293 44.5762C58.4766 44.3125 58.3535 44.1074 58.1309 43.9316C57.9024 43.7734 57.6621 43.7031 57.3809 43.7559L55.8809 44.0195C55.7402 43.7031 55.582 43.3926 55.3945 43.0762C55.2188 42.7598 55.0078 42.4844 54.8027 42.2207L55.7637 40.8262C55.9219 40.5977 55.9922 40.3574 55.9395 40.0938C55.8867 39.8301 55.7461 39.6074 55.5234 39.4492L53.8301 38.2598L53.7832 38.2773ZM69.2578 32.5996L65.4375 32.6348C64.8809 32.6406 64.4297 32.1895 64.4238 31.6328C64.418 31.0762 64.8691 30.625 65.4199 30.6191L71.707 30.5547H71.7129H71.7363H71.7422H71.7656H71.7715H71.7949H71.8008H71.8242H71.8301H71.8535H71.8594L71.8828 30.5606H71.8887L71.9121 30.5664H71.918L71.9414 30.5723H71.9473L71.9649 30.5781H71.9707L71.9883 30.584H71.9941L72.0117 30.5898H72.0176L72.0352 30.5957H72.041L72.0586 30.6016H72.0645L72.082 30.6074H72.0879L72.1055 30.6133H72.1113L72.1289 30.6191H72.1348L72.1524 30.625H72.1582L72.1758 30.6309H72.1816L72.1992 30.6426H72.2051L72.2227 30.6543H72.2285L72.2461 30.666H72.252L72.2695 30.6777H72.2754L72.293 30.6895H72.2988L72.3164 30.7012H72.3223L72.3399 30.7129H72.3457L72.3633 30.7246H72.3691L72.3867 30.7363H72.3926L72.4102 30.7481H72.416L72.4336 30.7598H72.4395L72.457 30.7715H72.4629L72.4805 30.7832L72.4863 30.7891L72.4981 30.8008L72.5039 30.8066L72.5156 30.8184L72.5274 30.8301V30.8359L72.5391 30.8535V30.8594L72.5508 30.877V30.8828L72.5625 30.9004V30.9063L72.5742 30.9238V30.9297L72.5859 30.9473V30.9531L72.5977 30.9707V30.9766L72.6094 30.9941V31L72.6211 31.0176V31.0234L72.6328 31.041V31.0469L72.6445 31.0645V31.0703L72.6563 31.0879V31.0938L72.668 31.1113V31.1172L72.6797 31.1348V31.1406L72.6856 31.1582V31.1641L72.6914 31.1816V31.1875L72.6973 31.2051L72.7031 31.2227V31.2285V31.2344L72.709 31.252V31.2578L72.7149 31.2754V31.2813L72.7207 31.2988V31.3047L72.7266 31.3223V31.3281L72.7324 31.3457V31.3516L72.7383 31.375V31.3809L72.7441 31.4043V31.4102L72.75 31.4336V31.4395L72.7559 31.4629V31.4863V31.4922V31.5156V31.5215V31.5449V31.5508V31.5742V31.5801L72.7852 38.0781C72.7852 38.6348 72.3399 39.0859 71.7832 39.0918C71.2266 39.0918 70.7754 38.6465 70.7754 38.0898L70.7578 34.0117L67.0664 37.7031C66.6738 38.0957 66.0293 38.0957 65.6367 37.7031C65.2441 37.3106 65.2441 36.666 65.6367 36.2734L69.2578 32.5996ZM34.5234 2.33594L30.7031 2.37109C30.1465 2.37695 29.6953 1.92578 29.6895 1.375C29.6836 0.818359 30.1348 0.367188 30.6914 0.361328L36.9785 0.296875H36.9844H37.0078H37.0137H37.0371H37.043H37.0664H37.0723H37.0957H37.1016H37.125H37.1309L37.1543 0.302734H37.1602L37.1836 0.308594H37.1895L37.2129 0.314453H37.2188L37.2363 0.320313H37.2422L37.2598 0.326172H37.2656L37.2832 0.332031H37.2891L37.3066 0.337891H37.3125L37.3301 0.34375H37.3359L37.3535 0.349609H37.3594L37.377 0.355469H37.3828L37.4004 0.361328H37.4063L37.4238 0.367188H37.4297L37.4473 0.373047H37.4531L37.4707 0.384766H37.4766L37.4941 0.396484H37.5L37.5176 0.408203H37.5234L37.541 0.419922H37.5469L37.5645 0.431641H37.5703L37.5879 0.443359H37.5938L37.6113 0.455078H37.6172L37.6348 0.466797H37.6406L37.6582 0.478516H37.6641L37.6816 0.490234H37.6875L37.7051 0.501953H37.7109L37.7285 0.513672H37.7344L37.752 0.525391L37.7578 0.53125L37.7695 0.542969L37.7754 0.548828L37.7871 0.560547V0.566406L37.7988 0.578125V0.583984L37.8106 0.601563V0.607422L37.8223 0.625V0.630859L37.834 0.648438V0.654297L37.8457 0.671875V0.677734L37.8574 0.695313V0.701172L37.8691 0.71875V0.724609L37.8809 0.742188V0.748047L37.8926 0.765625V0.771484L37.9043 0.789063V0.794922L37.916 0.8125V0.818359L37.9277 0.835938V0.841797L37.9395 0.859375V0.865234L37.8984 0.882813V0.888672L37.9043 0.90625V0.912109L37.9102 0.929688V0.935547L37.916 0.953125L37.9219 0.970703V0.976563V0.982422L37.9277 1V1.00586L37.9336 1.02344V1.0293L37.9395 1.04688V1.05273L37.9453 1.07031V1.07617L37.9512 1.09961V1.10547L37.957 1.12891V1.13477L37.9629 1.1582V1.16406L37.9688 1.1875V1.19336V1.2168V1.24023V1.24609V1.26953V1.27539V1.29883V1.30469V1.32813V1.33398L37.9981 7.83203C37.9981 8.38867 37.5527 8.83984 36.9961 8.83984C36.4395 8.83984 35.9883 8.39453 35.9883 7.83789L35.9707 3.75977L32.2793 7.45117C31.8867 7.84375 31.2422 7.84375 30.8496 7.45117C30.457 7.05859 30.457 6.41406 30.8496 6.02149L34.5234 2.33594ZM57.8731 10.7031L50.7656 10.7734C49.9336 10.7793 49.2539 10.1113 49.2481 9.2793C49.2422 8.44727 49.9102 7.76758 50.7422 7.76172L61.541 7.65625H61.5469H61.582H61.5879H61.6231H61.6289H61.6641H61.6699H61.7051H61.7109L61.7402 7.66211H61.7461L61.7754 7.66797H61.7813L61.8106 7.67383H61.8164L61.8457 7.67969H61.8516L61.8809 7.68555H61.8867L61.916 7.69141H61.9219L61.9512 7.69727H61.957L61.9863 7.70313H61.9922L62.0215 7.71484H62.0274L62.0566 7.72656H62.0625L62.0918 7.73828H62.0977L62.127 7.75H62.1328L62.1621 7.76172H62.168L62.1973 7.77344H62.2031L62.2324 7.78516H62.2383L62.2676 7.79688L62.2734 7.80274L62.3027 7.81445L62.3086 7.82031L62.332 7.83789L62.3379 7.84375L62.3613 7.86133L62.3672 7.86719L62.3906 7.88477L62.3965 7.89063L62.4199 7.9082L62.4258 7.91406L62.4492 7.93164L62.4551 7.9375L62.4785 7.95508L62.4844 7.96094L62.5078 7.97852L62.5137 7.98438L62.5371 8.00195L62.543 8.00781L62.5664 8.02539L62.5723 8.03125L62.5957 8.04883L62.6016 8.05469L62.625 8.07813L62.6309 8.08399L62.6543 8.10742L62.6602 8.11328L62.6836 8.13672L62.6895 8.14258L62.707 8.16602L62.7129 8.17188L62.7305 8.19531L62.7363 8.20117L62.7539 8.22461L62.7598 8.23047L62.7774 8.25391L62.7832 8.25977L62.8008 8.2832L62.8066 8.28906L62.8242 8.3125L62.8301 8.31836L62.8477 8.3418L62.8535 8.34766L62.8711 8.37109L62.877 8.37695L62.8945 8.40039V8.40625L62.9121 8.43555V8.44141L62.9297 8.4707L62.9414 8.5V8.50586L62.9531 8.53516V8.54102L62.9649 8.57031V8.57617L62.9766 8.60547V8.61133L62.9883 8.64063V8.64649L63 8.67578V8.68164L63.0117 8.71094V8.7168L63.0234 8.74609V8.75195L63.0293 8.78125V8.78711L63.0352 8.81641V8.82227L63.041 8.85156V8.85742L63.0469 8.89258L63.0527 8.92188V8.92774L63.0586 8.95703V8.96289L63.0645 8.99219V8.99805L63.0703 9.0332V9.03906V9.07422V9.08008V9.12109V9.15625V9.16211L63.1172 20.1133C63.1231 20.9453 62.4492 21.6191 61.6172 21.625C60.7852 21.6309 60.1113 20.957 60.1055 20.125L60.0762 12.7949L49.6231 23.2305C49.0313 23.8223 48.0762 23.8223 47.4844 23.2305C46.8926 22.6387 46.8926 21.6836 47.4844 21.0918L57.8731 10.7031ZM47.7949 43.1289C48.334 43.041 48.8789 43.041 49.418 43.1641C49.9395 43.2871 50.4141 43.4981 50.8477 43.791C51.2637 44.0899 51.6328 44.4707 51.9316 44.9277C52.2305 45.3789 52.418 45.8887 52.5059 46.4277C52.5938 46.9668 52.5938 47.5117 52.4707 48.0508C52.3477 48.5723 52.1367 49.0469 51.8438 49.4805C51.5449 49.8965 51.1641 50.2656 50.707 50.5645C50.2559 50.8633 49.7461 51.0508 49.207 51.1387C48.668 51.2266 48.1231 51.2266 47.584 51.1035C47.0625 50.9805 46.5879 50.7695 46.1543 50.4766C45.7383 50.1777 45.3691 49.7969 45.0703 49.3398C44.7715 48.8887 44.584 48.3789 44.4961 47.8398C44.4082 47.3008 44.4082 46.7559 44.5313 46.2168C44.6543 45.6953 44.8652 45.2207 45.1582 44.7871C45.457 44.3711 45.8379 44.002 46.2949 43.7031C46.752 43.4102 47.2559 43.2168 47.7949 43.1289ZM31.9512 18.666C31.8633 18.5781 31.793 18.5254 31.7051 18.4902C31.6348 18.4551 31.5469 18.4375 31.4414 18.4375C31.3359 18.4375 31.2481 18.4551 31.1777 18.4902C31.1074 18.5254 31.0195 18.5781 30.9492 18.6484L30.9316 18.666L28.957 20.6406C28.5703 21.0273 27.9609 21.0742 27.5273 20.7637C27.2988 20.623 27.0762 20.4824 26.8125 20.3477C26.5313 20.207 26.2734 20.0664 26.0273 19.9434C25.7637 19.8203 25.4883 19.6973 25.207 19.5918C24.9609 19.5039 24.6855 19.3984 24.3516 19.293C23.8828 19.1348 23.584 18.7012 23.584 18.2266V15.209C23.584 15.1035 23.5664 14.998 23.5313 14.9277C23.4961 14.8574 23.4434 14.7695 23.373 14.7168C23.3027 14.6465 23.2324 14.5938 23.1621 14.5586C23.0918 14.5234 22.9863 14.5059 22.8809 14.5059H19.0898C18.9844 14.5059 18.8965 14.5234 18.8262 14.541C18.7559 14.5762 18.668 14.6289 18.5801 14.7168C18.5098 14.7871 18.457 14.8574 18.4395 14.9277C18.4043 14.998 18.3867 15.1035 18.3867 15.209V17.9863C18.3867 18.543 17.9824 19 17.4609 19.1055C17.1621 19.1758 16.8867 19.2461 16.6406 19.3164C16.3594 19.4043 16.1016 19.4922 15.8203 19.5977C15.5566 19.7031 15.2813 19.8086 15.0176 19.9492C14.7363 20.0723 14.4961 20.2129 14.25 20.3359C13.7988 20.582 13.2715 20.4941 12.9258 20.1426L10.7461 17.9805C10.7285 17.9629 10.7285 17.9629 10.7285 17.9453C10.6582 17.875 10.5879 17.8223 10.5176 17.7871C10.4473 17.752 10.377 17.752 10.2715 17.752C10.166 17.752 10.0781 17.7695 10.0078 17.8047C9.91992 17.8398 9.84961 17.8926 9.76172 17.9805L7.10742 20.6523C7.01953 20.7402 6.9668 20.8105 6.93164 20.8984C6.89649 20.9688 6.87891 21.0566 6.87891 21.1621C6.87891 21.2676 6.89649 21.3555 6.93164 21.4258C6.9668 21.4961 7.01953 21.584 7.08984 21.6543V21.6719L9.06445 23.6465C9.44531 24.0273 9.49805 24.6426 9.1875 25.0762C9.04688 25.3047 8.90625 25.5273 8.77149 25.791C8.63086 26.0723 8.49024 26.3301 8.36719 26.5762C8.24414 26.8398 8.12109 27.1152 8.01563 27.3965C7.92773 27.6426 7.82227 27.918 7.7168 28.252C7.55859 28.7207 7.125 29.0195 6.65039 29.0195H3.64453C3.53906 29.0195 3.43359 29.0371 3.36328 29.0723C3.29297 29.1074 3.22266 29.1602 3.15234 29.2129C3.08203 29.2832 3.0293 29.3535 3.01172 29.4238C2.97656 29.4941 2.95898 29.5996 2.95898 29.7051V33.5078C2.95898 33.6133 2.97656 33.7012 2.99414 33.7715C3.0293 33.8418 3.08203 33.9297 3.16992 34.0176C3.24023 34.0879 3.31055 34.1406 3.38086 34.1582C3.45117 34.1934 3.55664 34.2109 3.66211 34.2109H6.43945C6.99609 34.2109 7.45313 34.6094 7.55859 35.1367C7.62891 35.4356 7.69922 35.7109 7.76953 35.9395C7.85742 36.2207 7.94531 36.4961 8.05078 36.7773C8.15625 37.041 8.26172 37.3164 8.40234 37.5977C8.54297 37.8965 8.66602 38.1543 8.78906 38.4004C9.01758 38.8516 8.92969 39.3789 8.57813 39.707L6.41602 41.8516L6.38672 41.8398C6.31641 41.9102 6.26367 41.9805 6.22852 42.0508C6.19336 42.1211 6.19336 42.1914 6.19336 42.2969C6.19336 42.4023 6.21094 42.4902 6.24609 42.5606C6.28125 42.6484 6.33399 42.7363 6.42188 42.8066L9.05859 45.4785C9.12891 45.5488 9.2168 45.6016 9.30469 45.6367C9.39258 45.6719 9.48047 45.6895 9.58594 45.6895C9.69141 45.6895 9.79688 45.6719 9.88477 45.6367C9.95508 45.6016 10.043 45.5488 10.1133 45.4961L12.0703 43.5039C12.457 43.0996 13.0664 43.0703 13.5 43.3633C13.7285 43.5039 13.9512 43.6445 14.2148 43.7793C14.4961 43.9199 14.7539 44.0606 15 44.1777C15.2637 44.3008 15.5391 44.4238 15.8203 44.5293C16.0664 44.6172 16.3418 44.7227 16.6758 44.8281C17.1445 44.9863 17.4434 45.4199 17.4434 45.8945V48.9121C17.4434 49.0176 17.4609 49.1231 17.4961 49.1934C17.5313 49.2637 17.584 49.3516 17.6367 49.4043C17.7773 49.5449 17.9355 49.5977 18.1406 49.5977H21.9434C22.0488 49.5977 22.1367 49.5801 22.207 49.5625C22.2773 49.5274 22.3652 49.4746 22.4531 49.3867C22.5234 49.3164 22.5762 49.2461 22.5938 49.1758C22.6289 49.1055 22.6465 49 22.6465 48.8945V46.1172C22.6465 45.5606 23.0508 45.1035 23.5723 44.9981C23.8711 44.9277 24.1465 44.8574 24.3926 44.7871C24.6738 44.6992 24.9316 44.6113 25.2129 44.5059C25.4766 44.4004 25.752 44.2949 26.0332 44.1543C26.332 44.0137 26.5898 43.8906 26.8359 43.7676C27.2871 43.5391 27.8145 43.627 28.1426 43.9785L30.2871 46.1406L30.3047 46.1582C30.375 46.2285 30.4453 46.2813 30.5156 46.3164C30.5859 46.3516 30.6738 46.3516 30.7793 46.3516C30.8848 46.3516 30.9727 46.334 31.043 46.2988C31.1133 46.2637 31.1836 46.2109 31.2539 46.1406C31.2715 46.1231 31.2891 46.1055 31.3066 46.1055L33.9609 43.4863C34.0313 43.416 34.084 43.3281 34.1191 43.2402C34.1543 43.1523 34.1719 43.0645 34.1719 42.959C34.1719 42.8535 34.1543 42.7481 34.1191 42.6602C34.084 42.5899 34.0313 42.502 33.9785 42.4316L31.9863 40.4746C31.582 40.0938 31.5527 39.4785 31.8457 39.0449C31.9863 38.8164 32.127 38.5938 32.2617 38.3301C32.4023 38.0488 32.543 37.791 32.666 37.5449C32.7891 37.2813 32.9121 37.0059 33.0176 36.7246C33.1055 36.4785 33.2109 36.2031 33.3164 35.8691C33.4746 35.4004 33.9082 35.1016 34.3828 35.1016H37.4004C37.5059 35.1016 37.6113 35.084 37.6816 35.0488C37.752 35.0137 37.8398 34.9609 37.8926 34.9082C38.0332 34.7676 38.0859 34.6094 38.0859 34.4043V30.6016C38.0859 30.4961 38.0684 30.4082 38.0508 30.3379C38.0156 30.2676 37.9629 30.1797 37.875 30.0918C37.8047 30.0215 37.7344 29.9688 37.6641 29.9512C37.5938 29.916 37.4883 29.8984 37.3828 29.8984H34.6055C34.0488 29.8984 33.5742 29.4824 33.4863 28.9551C33.416 28.709 33.3457 28.4512 33.2754 28.1875C33.1875 27.9238 33.0996 27.6484 32.9766 27.3496C32.9766 27.332 32.959 27.3145 32.959 27.2969C32.8535 27.0156 32.7481 26.7754 32.6426 26.5293C32.5195 26.2656 32.3965 26.0078 32.2559 25.7617C32.0098 25.3105 32.0977 24.7832 32.4492 24.4375L34.6113 22.2578C34.6113 22.2402 34.6289 22.2402 34.6465 22.2402C34.7168 22.1699 34.7695 22.0996 34.8047 22.0293C34.8398 21.959 34.8398 21.8887 34.8398 21.7832C34.8398 21.6777 34.8223 21.5898 34.7871 21.5195C34.752 21.4316 34.6992 21.3613 34.6113 21.2734L31.9395 18.6191L31.9512 18.666ZM32.5781 16.4102C32.9473 16.5684 33.2578 16.7793 33.5391 17.0547L36.2109 19.709H36.2285C36.5098 19.9902 36.7148 20.3008 36.8731 20.6523C37.0313 21.0215 37.1016 21.3848 37.1016 21.7891C37.1016 22.1875 37.0137 22.5742 36.8731 22.9258C36.7148 23.2773 36.5039 23.5879 36.2109 23.8516L34.6406 25.4395C34.6582 25.4922 34.6934 25.5449 34.7109 25.5977C34.8516 25.8965 34.9746 26.207 35.0918 26.5059C35.0918 26.5234 35.1094 26.541 35.1094 26.5586C35.2324 26.8574 35.3379 27.1856 35.4434 27.5371L35.4785 27.6602H37.4004C37.7988 27.6602 38.1856 27.7305 38.5371 27.8887C38.8887 28.0293 39.1992 28.2578 39.4805 28.5332L39.4981 28.5508C39.7793 28.832 39.9844 29.1426 40.125 29.4941C40.2656 29.8457 40.3535 30.2266 40.3535 30.6133V34.416C40.3535 35.2363 40.0723 35.9336 39.4981 36.5078C39.2168 36.7891 38.8887 37.0117 38.5371 37.1523C38.1856 37.293 37.8047 37.3633 37.4004 37.3633H35.168C35.1504 37.416 35.1152 37.4863 35.0977 37.5391C34.9746 37.8555 34.834 38.166 34.6992 38.4824C34.541 38.8164 34.4004 39.127 34.2481 39.4082L34.1953 39.5137L35.5547 40.8555L35.6074 40.9082C35.8887 41.1895 36.0762 41.5176 36.2168 41.8691C36.3574 42.2207 36.4277 42.584 36.4277 42.9883C36.4277 43.375 36.3574 43.7383 36.2168 44.0898C36.0762 44.4414 35.8828 44.752 35.6074 45.0508L35.5723 45.0859L32.9004 47.7402C32.6191 48.0391 32.3086 48.2441 31.957 48.4023C31.6055 48.5606 31.2246 48.6309 30.8027 48.6309C30.4043 48.6309 30.0176 48.543 29.6484 48.4023C29.2793 48.2441 28.9688 48.0156 28.7051 47.7402L27.1523 46.1699C27.0996 46.2051 27.0469 46.2227 26.9766 46.2402C26.6777 46.3633 26.3672 46.5039 26.0332 46.627C25.7168 46.75 25.3887 46.8555 25.0547 46.9609C25.002 46.9785 24.9668 46.9961 24.9141 46.9961V48.9004C24.9141 49.2988 24.8438 49.6856 24.6855 50.0371C24.5449 50.3887 24.3164 50.6992 24.041 50.9805L24.0234 50.9981C23.7422 51.2793 23.4316 51.4844 23.0801 51.625C22.7285 51.7656 22.3477 51.8535 21.9609 51.8535H18.1582C17.3379 51.8535 16.6406 51.5723 16.0664 50.9981C15.7852 50.7168 15.5625 50.3887 15.4219 50.0371C15.2813 49.6856 15.2109 49.3047 15.2109 48.9004V46.668C15.1582 46.6504 15.0879 46.6152 15.0352 46.5977C14.7188 46.4746 14.4082 46.334 14.0918 46.1934C13.7578 46.0352 13.4473 45.8945 13.166 45.7422L13.0605 45.6895L11.7188 47.0488L11.666 47.1016C11.3848 47.3828 11.0566 47.5703 10.7051 47.7109C10.3535 47.8516 9.99024 47.9219 9.58594 47.9219C9.19922 47.9219 8.83594 47.8516 8.48438 47.7109C8.13281 47.5703 7.82227 47.377 7.52344 47.1016L7.48828 47.0664L4.81641 44.3594C4.53516 44.0781 4.33008 43.7676 4.17188 43.416C4.01367 43.0469 3.94336 42.6836 3.94336 42.2793C3.94336 41.875 4.03125 41.4941 4.17188 41.1426C4.33008 40.791 4.55859 40.4805 4.83398 40.1992L6.4043 38.6465C6.36914 38.5938 6.35156 38.541 6.33398 38.4707C6.21094 38.1719 6.07031 37.8613 5.94727 37.5273C5.82422 37.1934 5.70117 36.8828 5.61328 36.5488L5.57813 36.4082H3.69727C3.29297 36.4082 2.91211 36.3379 2.56055 36.1797C2.20898 36.0391 1.89844 35.8106 1.61719 35.5352L1.59961 35.5176C1.31836 35.2363 1.11328 34.9258 0.972656 34.5742C0.837891 34.2109 0.75 33.8301 0.75 33.4434V29.6406C0.75 29.2422 0.820313 28.873 0.960938 28.5039C1.10156 28.1523 1.33008 27.8418 1.60547 27.543C1.88672 27.2617 2.21484 27.0391 2.56641 26.8984C2.91797 26.7578 3.29883 26.6875 3.70313 26.6875H5.93555C5.95313 26.6348 5.98828 26.5645 6.00586 26.5117C6.12891 26.1953 6.26953 25.8848 6.4043 25.5684C6.5625 25.2344 6.70313 24.9238 6.85547 24.6426L6.9082 24.5371L5.56641 23.1777C5.28516 22.8965 5.0625 22.5859 4.92188 22.2168C4.76367 21.8477 4.69336 21.4668 4.69336 21.0801C4.69336 20.6816 4.76367 20.3125 4.92188 19.9434C5.08008 19.5742 5.29102 19.2637 5.56641 18.9824L8.2207 16.3105V16.293C8.50195 16.0117 8.8125 15.8066 9.16406 15.6484C9.5332 15.4902 9.89649 15.4199 10.3008 15.4199C10.7051 15.4199 11.0859 15.5078 11.4375 15.6484C11.7891 15.8066 12.0996 16.0176 12.3633 16.3105L13.9512 17.8809C14.0039 17.8633 14.0566 17.8281 14.0918 17.8105C14.3906 17.6699 14.7012 17.5469 15.0352 17.4121C15.3516 17.2891 15.6797 17.1836 16.0137 17.0781C16.0664 17.0605 16.1016 17.043 16.1543 17.043V15.1387C16.1543 14.7344 16.2246 14.3535 16.3828 14.002C16.5234 13.6504 16.752 13.3398 17.0273 13.0586L17.0449 13.041C17.3262 12.7598 17.6367 12.5547 17.9883 12.4141C18.3398 12.2734 18.7207 12.1855 19.1074 12.1855H22.9102C23.3086 12.1855 23.6777 12.2559 24.0469 12.3965C24.416 12.5371 24.7266 12.7656 25.0078 13.041C25.2891 13.3223 25.5117 13.6504 25.6523 14.002C25.793 14.3535 25.8633 14.7344 25.8633 15.1387V17.3711C25.916 17.3887 25.9863 17.4238 26.0391 17.4414C26.3555 17.5645 26.666 17.7051 26.9824 17.8457C27.3164 18.0039 27.627 18.1445 27.9082 18.2969L28.0137 18.3496L29.373 17.0078C29.6543 16.7266 29.9648 16.5039 30.334 16.3633C30.7031 16.2051 31.084 16.1348 31.4707 16.1348C31.875 16.1348 32.2383 16.2051 32.6074 16.3633V16.4102H32.5781ZM20.5195 23.4824C21.0938 23.4824 21.6738 23.5352 22.2305 23.6582C22.7695 23.7637 23.3145 23.9395 23.8535 24.1621C24.3574 24.3906 24.8496 24.6484 25.3008 24.9473C25.752 25.2461 26.1738 25.5918 26.5547 25.9785C26.9414 26.3652 27.2871 26.7813 27.5859 27.25C27.9023 27.7012 28.1602 28.1934 28.3711 28.6973C28.3887 28.7324 28.3887 28.7676 28.4063 28.7852C28.6172 29.2891 28.7754 29.8164 28.875 30.3203C28.9805 30.877 29.0508 31.457 29.0508 32.0313C29.0508 32.6055 28.9981 33.1856 28.875 33.7422C28.7695 34.2813 28.5938 34.8262 28.3711 35.3652C28.1426 35.8691 27.8848 36.3613 27.5859 36.8125C27.2695 37.2637 26.9414 37.6856 26.5547 38.084C26.168 38.4707 25.752 38.8164 25.2832 39.1152C24.832 39.4316 24.3398 39.6895 23.8359 39.9004C23.8008 39.918 23.7656 39.918 23.748 39.9356C23.2441 40.1465 22.7168 40.3047 22.2129 40.4043C21.6563 40.5098 21.0762 40.5801 20.502 40.5801C19.9277 40.5801 19.3477 40.5273 18.791 40.4043C18.252 40.2988 17.707 40.123 17.168 39.9004C16.6641 39.6719 16.1719 39.4141 15.7207 39.1152C15.2695 38.8164 14.8477 38.4707 14.4668 38.084C14.0801 37.6973 13.7344 37.2813 13.4355 36.8125C13.1191 36.3613 12.8613 35.8691 12.6504 35.3652C12.6328 35.3301 12.6328 35.2949 12.6152 35.2773C12.4043 34.7734 12.2461 34.2461 12.1465 33.7422C12.041 33.1856 11.9707 32.6055 11.9707 32.0313C11.9707 31.457 12.0234 30.877 12.1465 30.3203C12.252 29.7813 12.4277 29.2363 12.6504 28.6973C12.8789 28.1934 13.1367 27.7012 13.4355 27.25C13.7344 26.7988 14.0801 26.377 14.4668 25.9785C14.8477 25.5977 15.2695 25.2461 15.7207 24.9473C16.1719 24.6309 16.6641 24.373 17.168 24.1621C17.2031 24.1445 17.2383 24.1445 17.2559 24.127C17.7598 23.916 18.2871 23.7578 18.791 23.6582C19.3477 23.5527 19.9277 23.4824 20.502 23.4824H20.5195ZM21.7969 25.8555C21.3984 25.7676 20.959 25.7324 20.5254 25.7324C20.0918 25.7324 19.6699 25.7676 19.2539 25.8555C18.8555 25.9434 18.4863 26.0488 18.1348 26.1895C18.1172 26.207 18.0996 26.207 18.0645 26.2246C17.666 26.4004 17.2969 26.5938 16.9629 26.8164C16.6289 27.0449 16.3184 27.2852 16.0371 27.5664C15.7559 27.8477 15.498 28.1582 15.2871 28.4922C15.0586 28.8262 14.8711 29.1895 14.6953 29.5938C14.5371 29.9629 14.4141 30.3613 14.3262 30.7832C14.2383 31.1816 14.2031 31.6211 14.2031 32.0547C14.2031 32.4883 14.2383 32.9102 14.3262 33.3262C14.4141 33.7246 14.5195 34.0938 14.6602 34.4453C14.6777 34.4629 14.6777 34.4805 14.6953 34.5156C14.8711 34.9199 15.0645 35.2832 15.2871 35.6172C15.5156 35.9512 15.7559 36.2617 16.0371 36.543C16.3184 36.8242 16.6289 37.082 16.9629 37.293C17.2969 37.5215 17.6602 37.709 18.0645 37.8848C18.4336 38.043 18.832 38.166 19.2539 38.2539C19.6523 38.3418 20.0918 38.377 20.5254 38.377C20.959 38.377 21.3809 38.3418 21.7969 38.2539C22.2012 38.166 22.5645 38.0606 22.916 37.9199C22.9336 37.9023 22.9512 37.9023 22.9863 37.8848C23.3848 37.709 23.7539 37.5156 24.0879 37.293C24.4219 37.0645 24.7324 36.8242 25.0137 36.543C25.2949 36.2617 25.5527 35.9512 25.7637 35.6172C25.9922 35.2832 26.1797 34.9199 26.3555 34.5156C26.5137 34.1465 26.6367 33.7481 26.7246 33.3262C26.8125 32.9219 26.8477 32.4883 26.8477 32.0547C26.8477 31.6211 26.8125 31.1992 26.7246 30.7832C26.6367 30.3848 26.5313 30.0156 26.3906 29.6641C26.373 29.6465 26.3731 29.6289 26.3555 29.5938C26.1797 29.1895 25.9863 28.8262 25.7637 28.4922C25.5352 28.1582 25.2949 27.8477 25.0137 27.5664C24.7324 27.2852 24.4219 27.0273 24.0879 26.8164C23.7539 26.5879 23.3906 26.4004 22.9863 26.2246C22.6172 26.0605 22.2129 25.9434 21.7969 25.8555Z" fill="#FFF5FB"/>
</svg>
