<svg width="58" height="60" viewBox="0 0 58 60" fill="none" xmlns="http://www.w3.org/2000/svg">
<path d="M44.8731 53.0475L43.418 52.7865L42.688 54.0966C42.6832 54.1062 42.6783 54.1159 42.6687 54.1207C42.3641 54.4978 42.0837 54.4881 41.842 54.2899C41.581 54.0772 41.407 53.6228 41.2958 53.3231L41.2523 53.2119L39.7102 50.3017C39.6618 50.2099 39.6956 50.0987 39.7875 50.0552C39.7972 50.0503 39.8068 50.0455 39.8117 50.0455C39.9712 49.9923 40.1501 49.8811 40.3434 49.7361C40.5465 49.5863 40.7592 49.3977 40.9767 49.2043C41.0154 49.1705 41.0637 49.1512 41.1169 49.156C41.5326 49.1657 41.9387 49.1318 42.3013 49.011C42.659 48.8901 42.9877 48.6774 43.2681 48.3197C43.331 48.2375 43.447 48.223 43.5243 48.2859C43.5437 48.3052 43.563 48.3245 43.5727 48.3487L45.3565 51.7906L45.5112 52.1242C45.516 52.1339 45.5209 52.1435 45.5209 52.1532C45.5934 52.4094 45.6079 52.6318 45.5209 52.801C45.4242 52.9895 45.2356 53.0862 44.9166 53.062C44.9069 53.0572 44.8876 53.0524 44.8731 53.0475ZM14.2339 48.0345C16.9701 44.4427 19.305 46.0766 22.5729 48.3584C22.7373 48.4744 22.9016 48.5856 23.066 48.7016C23.5349 49.0255 24.0232 48.9675 24.5163 48.7258C25.048 48.4599 25.5846 47.9861 26.1164 47.5172L26.1261 47.5124C26.6046 47.0918 27.0736 46.6761 27.5763 46.357C27.6633 46.3038 27.7745 46.328 27.8277 46.415L28.5722 47.5849C28.6253 47.6719 28.6012 47.7831 28.5141 47.8363C28.1274 48.0828 27.7068 48.4551 27.2766 48.837L27.2669 48.8466C26.5225 49.5041 25.7587 50.176 24.9175 50.5241C24.0473 50.8818 23.1095 50.8818 22.0653 50.1567L21.5674 49.8086C20.3105 48.9288 19.2325 48.1795 18.2656 47.9426C17.3375 47.7202 16.4915 47.9861 15.6358 49.1077C15.573 49.1898 15.457 49.2043 15.3796 49.1415L14.2726 48.2955C14.1856 48.2327 14.1711 48.1167 14.2339 48.0345ZM44.2881 2.08542C43.9691 2.44799 43.7177 2.81539 43.5292 3.17795C43.331 3.56469 43.1956 3.95142 43.1231 4.34299C43.0409 4.77807 43.0264 5.22282 43.0748 5.67723C43.1231 6.13648 43.2294 6.61023 43.389 7.09365L43.7129 8.08466C43.7419 8.18135 43.6935 8.28286 43.5968 8.3167C43.5775 8.32154 43.5582 8.32637 43.5388 8.32637H9.48191V53.3956C9.48191 53.4101 9.48191 53.4198 9.47708 53.4294C9.48191 54.2223 9.56409 54.9039 9.73812 55.4743C9.90732 56.0399 10.1587 56.4992 10.5019 56.8327C10.8307 57.1566 11.2609 57.3838 11.7927 57.5143C12.3389 57.6449 12.9964 57.669 13.765 57.582C23.5736 56.7264 37.9698 57.5723 48.2812 57.5723V6.56672C48.2812 6.55706 48.2812 6.54255 48.286 6.53289V6.52805C48.3295 5.56605 48.2425 4.80708 48.054 4.21247C47.8703 3.63237 47.5802 3.21179 47.2128 2.91207C46.8599 2.62685 46.4249 2.42865 45.9221 2.30296C45.4338 2.17244 44.8827 2.10959 44.2881 2.08542ZM7.59657 8.32637H0.683669C0.582151 8.32637 0.499969 8.24419 0.499969 8.14267L0.528975 7.3547C0.55798 6.54739 0.654664 5.77875 0.833529 5.06329C1.01239 4.34299 1.27344 3.67587 1.63117 3.06677C2.0034 2.44315 2.46749 1.88722 3.05243 1.41347C3.63253 0.939718 4.32382 0.552982 5.15047 0.253262C5.16014 0.248428 5.16981 0.248428 5.17947 0.243593L5.43569 0.195251C5.44052 0.195251 5.45502 0.195251 5.46469 0.195251H45.6852C45.7819 0.195251 45.8641 0.272599 45.8689 0.369283C46.304 0.44663 46.7149 0.557816 47.1016 0.712511C47.5754 0.89621 48.0105 1.14275 48.3972 1.45698C48.9966 1.94523 49.4656 2.59301 49.7701 3.439C50.0698 4.26565 50.21 5.2905 50.1569 6.54739V6.56672V51.3411H55.3391C55.4116 51.3411 55.4745 51.3459 55.5276 51.3507C55.5421 51.3459 55.5567 51.3459 55.5712 51.3459H55.6147C56.0207 51.3459 56.3156 51.3411 56.5622 51.3991C56.8329 51.4619 57.0359 51.5876 57.2293 51.8342C57.5242 52.2161 57.5097 52.5303 57.4807 53.1007V53.1104C57.471 53.2747 57.4613 53.4826 57.4613 53.8162C57.4613 55.1746 57.2244 56.2478 56.7894 57.0889C56.3446 57.9349 55.7017 58.5392 54.8944 58.9501C54.1886 59.3078 53.3668 59.5012 52.4579 59.5737C51.5636 59.6414 50.5774 59.593 49.5284 59.4674H13.9004C12.8658 59.5785 11.957 59.5205 11.1739 59.3078C10.3811 59.0903 9.71395 58.7132 9.17252 58.1766C8.64076 57.6497 8.24435 56.9777 7.98331 56.1753C7.7271 55.3921 7.60141 54.4785 7.60141 53.4391C7.60141 53.4294 7.59657 53.4149 7.59657 53.4004V8.32637ZM41.2764 3.9901C41.3489 3.61303 41.4553 3.24563 41.6052 2.87823C41.7115 2.60752 41.842 2.34164 41.9967 2.07575H5.62422C5.07312 2.29329 4.6042 2.56401 4.21747 2.8879C3.82106 3.21663 3.50201 3.59853 3.25063 4.02394C3.03309 4.39134 2.86389 4.79741 2.73337 5.23249C2.62218 5.61439 2.54 6.02046 2.48199 6.44587H41.2861C41.2184 6.0688 41.1797 5.69657 41.1701 5.32434C41.1604 4.87475 41.1942 4.43001 41.2764 3.9901ZM50.1617 53.2216V57.6449C50.9352 57.7222 51.6555 57.7464 52.2984 57.698C52.9752 57.6449 53.565 57.5143 54.0484 57.2678C54.527 57.0261 54.9089 56.6442 55.1699 56.0931C55.4406 55.5275 55.5857 54.7782 55.5857 53.8113C55.5857 53.676 55.5905 53.531 55.5953 53.3859L55.605 53.1974C55.576 53.2119 55.5421 53.2216 55.5083 53.2216H55.4986C55.46 53.2216 55.4261 53.2264 55.3923 53.2216H50.1617ZM14.9301 15.9064C14.669 15.9064 14.437 15.8 14.2678 15.6308C14.0986 15.4616 13.9922 15.2248 13.9922 14.9686C13.9922 14.7075 14.0986 14.4755 14.2678 14.3063C14.437 14.1371 14.6738 14.0307 14.9301 14.0307H36.771C37.032 14.0307 37.264 14.1371 37.4332 14.3063C37.6024 14.4755 37.7088 14.7123 37.7088 14.9686C37.7088 15.2296 37.6024 15.4616 37.4332 15.6308C37.264 15.8 37.0272 15.9064 36.771 15.9064H14.9301ZM14.9301 23.6459C14.669 23.6459 14.4321 23.5396 14.2629 23.3704C14.0937 23.2012 13.9874 22.9643 13.9874 22.7081C13.9874 22.4471 14.0937 22.215 14.2629 22.0458C14.4321 21.8766 14.669 21.7703 14.9301 21.7703H41.7212C41.9822 21.7703 42.2191 21.8766 42.3883 22.0458C42.5575 22.215 42.6638 22.4519 42.6638 22.7081C42.6638 22.9692 42.5575 23.2012 42.3883 23.3704C42.2191 23.5396 41.9822 23.6459 41.7212 23.6459H14.9301ZM14.9301 31.3952C14.669 31.3952 14.437 31.2888 14.2678 31.1196C14.0986 30.9504 13.9922 30.7135 13.9922 30.4573C13.9922 30.1963 14.0986 29.9642 14.2678 29.7902C14.437 29.621 14.6738 29.5147 14.9349 29.5147H36.3456C36.6066 29.5147 36.8386 29.621 37.0078 29.7902C37.177 29.9594 37.2834 30.1963 37.2834 30.4525C37.2834 30.7135 37.177 30.9456 37.0078 31.1148C36.8386 31.284 36.6018 31.3903 36.3456 31.3903H14.9301V31.3952ZM14.9301 39.1492C14.6738 39.1492 14.437 39.0429 14.2678 38.8737C14.0986 38.7045 13.9922 38.4676 13.9922 38.2066C13.9922 37.9455 14.0986 37.7086 14.2678 37.5394C14.437 37.3702 14.6738 37.2639 14.9301 37.2639H26.01C26.2662 37.2639 26.5031 37.3702 26.6723 37.5394C26.8415 37.7086 26.9479 37.9455 26.9479 38.2066C26.9479 38.4676 26.8415 38.7045 26.6723 38.8737C26.5031 39.0429 26.2662 39.1492 26.01 39.1492H14.9301ZM38.9753 36.9883C39.1494 36.9787 39.3041 37.0077 39.4491 37.056C39.5893 37.1044 39.7198 37.1769 39.8552 37.259C39.9905 37.3461 40.1307 37.4621 40.2806 37.5926L40.2903 37.6023C40.4788 37.7618 40.6867 37.9407 40.9187 38.0712C41.1072 38.1775 41.3876 38.1872 41.6825 38.2017C42.2384 38.2211 42.8427 38.2452 43.2439 38.8398C43.5872 39.3571 43.6162 39.7487 43.6404 40.1402L43.6452 40.1837C43.6549 40.3723 43.679 40.5511 43.7467 40.7445C43.8144 40.9427 43.9304 41.1554 44.1238 41.4165C44.4863 41.895 44.7039 42.3011 44.7861 42.6734C44.8731 43.0649 44.8151 43.4178 44.6169 43.7755L44.612 43.7852C44.4622 44.0414 44.2446 44.23 44.0561 44.3895C43.9159 44.5103 43.7902 44.6167 43.7515 44.7037C43.65 44.9406 43.6452 45.1581 43.6452 45.3853C43.6404 45.6947 43.6355 46.0138 43.4325 46.4199L43.4277 46.4295C43.2971 46.6809 43.1328 46.8936 42.9346 47.0628C42.7315 47.2368 42.4946 47.3674 42.2239 47.4544C41.9822 47.5317 41.7598 47.5172 41.5423 47.5027C41.3634 47.4882 41.1991 47.4785 41.0734 47.5317L41.0589 47.5366C40.7978 47.6477 40.561 47.8411 40.3338 48.02C40.0824 48.223 39.8455 48.4115 39.5748 48.4986C39.3766 48.5614 39.1784 48.5904 38.9802 48.5904C38.782 48.5904 38.5838 48.5614 38.3856 48.4986L38.3759 48.4937C38.11 48.4115 37.8732 48.2182 37.6218 48.0151C37.3946 47.8314 37.1529 47.6381 36.887 47.5269C36.7613 47.4737 36.5969 47.4882 36.4181 47.4979C36.2054 47.5124 35.9781 47.5269 35.7316 47.4495L35.7171 47.4447C35.4512 47.3577 35.2192 47.2272 35.0161 47.058C34.8179 46.8839 34.6487 46.6712 34.5231 46.415C34.32 46.0089 34.3152 45.6899 34.3104 45.3805C34.3055 45.1533 34.3055 44.9358 34.204 44.6989L34.1992 44.694C34.1557 44.6022 34.03 44.4958 33.8898 44.375C33.6964 44.2106 33.4789 44.0269 33.3338 43.7707L33.3242 43.7562C33.126 43.4033 33.0728 43.0553 33.1598 42.6637C33.242 42.2914 33.4644 41.8854 33.8269 41.4068C34.0251 41.1506 34.1363 40.933 34.204 40.7348C34.2717 40.5415 34.2958 40.3578 34.3055 40.1692L34.3104 40.1306C34.3345 39.739 34.3635 39.3378 34.7068 38.8302L34.7164 38.8205C35.1128 38.2356 35.7123 38.2162 36.2634 38.1969C36.5583 38.1872 36.8435 38.1727 37.032 38.0664L37.0368 38.0615C37.264 37.931 37.4719 37.757 37.6604 37.5926C37.8103 37.4621 37.9505 37.3412 38.0955 37.2542C38.2261 37.1672 38.3614 37.0995 38.5016 37.0512C38.6515 37.0077 38.8062 36.9835 38.9753 36.9883ZM41.2281 40.5366C40.6528 39.9614 39.86 39.6036 38.9802 39.6036C38.1004 39.6036 37.3076 39.9614 36.7323 40.5366C36.157 41.1119 35.7993 41.9047 35.7993 42.7845C35.7993 43.6644 36.157 44.4572 36.7323 45.0324C37.3076 45.6077 38.1004 45.9654 38.9802 45.9654C39.86 45.9654 40.6528 45.6077 41.2281 45.0324C41.8034 44.4572 42.1611 43.6644 42.1611 42.7845C42.1563 41.9095 41.8034 41.1119 41.2281 40.5366ZM34.5424 52.7865L33.0873 53.0475C33.0728 53.0524 33.0583 53.0524 33.039 53.0524C32.7199 53.0765 32.5314 52.9799 32.4347 52.7913C32.3477 52.627 32.3622 52.4046 32.4347 52.1435L32.4444 52.1145L32.599 51.781L34.3829 48.339C34.3925 48.3149 34.4119 48.2955 34.4312 48.2762C34.5134 48.2133 34.6246 48.2278 34.6874 48.31C34.963 48.6629 35.2917 48.8756 35.6543 49.0013C36.0217 49.127 36.4229 49.156 36.8386 49.1463C36.887 49.1415 36.9353 49.156 36.9788 49.1947C37.1964 49.3881 37.4091 49.5766 37.6121 49.7264C37.8055 49.8715 37.9843 49.9827 38.1439 50.0358L38.168 50.0455C38.2599 50.0938 38.2937 50.205 38.2454 50.292L36.7033 53.2022L36.6598 53.3134C36.5486 53.6131 36.3746 54.0676 36.1135 54.2803C35.8718 54.4736 35.5962 54.4881 35.2869 54.1111C35.282 54.1014 35.2724 54.0966 35.2675 54.0869L34.5424 52.7865Z" fill="#FFF5FB"/>
</svg>
