<svg width="66" height="72" viewBox="0 0 66 72" fill="none" xmlns="http://www.w3.org/2000/svg">
<path fill-rule="evenodd" clip-rule="evenodd" d="M40.9478 23.9369L42.6179 25.607C43.0559 26.045 43.0559 26.7691 42.6179 27.2071L41.2689 28.5561C41.6427 29.251 41.923 29.9985 42.104 30.781H43.8501C44.4749 30.781 44.983 31.289 44.983 31.9139V34.2789C44.983 34.9038 44.4749 35.4118 43.8501 35.4118H41.9463C41.7128 36.1827 41.3799 36.9068 40.9594 37.5784L42.1916 38.8105C42.6296 39.2485 42.6296 39.9726 42.1916 40.4106L40.5215 42.0808C40.0835 42.5187 39.3594 42.5187 38.9214 42.0808L37.5783 40.7376C36.8833 41.1114 36.1359 41.3917 35.3475 41.5727V43.3188C35.3475 43.9436 34.8395 44.4517 34.2146 44.4517H31.8495C31.2247 44.4517 30.7166 43.9436 30.7166 43.3188V41.415C29.9458 41.1814 29.2217 40.8486 28.5501 40.4281L27.3296 41.6545C26.8917 42.0924 26.1675 42.0924 25.7296 41.6545L24.0594 39.9843C23.6214 39.5463 23.6214 38.8222 24.0594 38.3842L25.4025 37.0411C25.0288 36.3462 24.7485 35.5987 24.5675 34.8162H22.8214C22.2024 34.8162 21.6885 34.3082 21.6885 33.6833V31.3182C21.6885 30.6934 22.1966 30.1853 22.8214 30.1853H24.7251C24.9587 29.4145 25.2916 28.6904 25.712 28.0188L24.4799 26.7866C24.0419 26.3487 24.0419 25.6245 24.4799 25.1866L26.15 23.5164C26.588 23.0785 27.3121 23.0785 27.7501 23.5164L29.0991 24.8654C29.794 24.4917 30.5414 24.2113 31.324 24.0303V22.2843C31.324 21.6594 31.832 21.1514 32.4569 21.1514H34.8219C35.4468 21.1514 35.9548 21.6594 35.9548 22.2843V24.188C36.7257 24.4216 37.4498 24.7544 38.1214 25.1749L39.3535 23.9427C39.7915 23.4931 40.5098 23.4931 40.9478 23.9369ZM25.7704 59.6231C25.1047 59.6407 24.5207 59.1501 24.4273 58.4786C24.328 57.7778 24.801 57.1296 25.4901 56.9953C24.731 52.6915 22.6579 50.3205 20.468 47.8153C18.7628 45.8649 16.9934 43.8385 15.5977 40.8544C14.2254 37.9171 13.4721 34.8804 13.4954 31.727C13.5246 28.5736 14.3247 25.3267 16.0649 21.9689C16.0766 21.9456 16.0882 21.928 16.0999 21.9047C18.3832 18.0388 21.5775 15.4577 25.1339 14.0094C28.118 12.7889 31.359 12.3743 34.5358 12.6663C37.7009 12.9583 40.8018 13.951 43.5114 15.5511C46.9568 17.5892 49.789 20.6141 51.3482 24.4333C52.1891 26.5005 52.7614 28.8072 52.8315 31.3358C52.9016 33.8527 52.4694 36.5681 51.3073 39.4412C49.754 43.2896 47.6984 45.678 45.7772 47.9146C44.0077 49.976 42.361 51.8914 41.4441 54.8288C41.9639 54.9514 42.3726 55.3777 42.4544 55.9383C42.5537 56.6624 42.0456 57.334 41.3215 57.4333L40.8777 57.4975C40.7959 58.134 40.7434 58.8173 40.72 59.5472L40.866 59.5239C41.5901 59.4246 42.2617 59.9326 42.361 60.6568C42.4602 61.3809 41.9522 62.0525 41.2281 62.1517L40.7726 62.216C40.7784 62.3036 40.7842 62.3912 40.7901 62.4787C40.831 62.9926 40.8368 63.489 40.8076 63.962L40.8835 63.9503C41.6135 63.8628 42.2734 64.3825 42.3668 65.1066C42.4544 65.8366 41.9347 66.4964 41.2105 66.5899L40.2295 66.7125C39.5287 68.5287 38.279 69.9127 36.8016 70.7653C35.7855 71.3551 34.6584 71.6938 33.5255 71.7638C32.3751 71.8339 31.213 71.6178 30.1502 71.104C28.9355 70.5083 27.8494 69.5214 27.061 68.1024C26.6814 67.9096 26.4011 67.5359 26.3427 67.0804C26.3194 66.8994 26.3369 66.7242 26.3836 66.5607C26.1559 65.8833 25.9865 65.1416 25.8755 64.3241L25.8347 64.3299C25.1106 64.4292 24.439 63.9212 24.3397 63.197C24.2404 62.4729 24.7485 61.8013 25.4726 61.7021L25.788 61.6554C25.8055 60.9429 25.7996 60.2655 25.7704 59.6231ZM1.27299 34.3899C0.589748 34.4074 0.023299 33.876 -5.97044e-05 33.1928C-0.0234184 32.5095 0.513832 31.9431 1.19707 31.9197L6.27759 31.7445C6.96084 31.7212 7.52728 32.2584 7.55064 32.9417C7.574 33.6249 7.03675 34.1914 6.35351 34.2147L1.27299 34.3899ZM64.6393 29.3619C65.3167 29.2919 65.9241 29.7882 65.9941 30.4656C66.0642 31.143 65.5678 31.7504 64.8904 31.8204L59.8333 32.3519C59.1559 32.4219 58.5485 31.9256 58.4785 31.2482C58.4084 30.5708 58.9048 29.9634 59.5822 29.8934L64.6393 29.3619ZM55.4302 8.64861C55.8097 8.08216 56.5747 7.93033 57.1412 8.30991C57.7076 8.68949 57.8595 9.45448 57.4799 10.0209L54.6535 14.2489C54.2739 14.8153 53.5089 14.9671 52.9425 14.5876C52.376 14.208 52.2242 13.443 52.6038 12.8765L55.4302 8.64861ZM33.654 1.22054C33.6715 0.537299 34.238 4.83971e-05 34.9154 0.0175674C35.5986 0.0350865 36.1359 0.601535 36.1183 1.27894L35.9899 6.35946C35.9724 7.0427 35.4059 7.57995 34.7285 7.56243C34.0453 7.54491 33.508 6.97846 33.5255 6.30106L33.654 1.22054ZM8.10541 9.08659C7.6032 8.61941 7.57984 7.83689 8.04118 7.34052C8.50835 6.83831 9.29087 6.81495 9.78724 7.27629L13.5071 10.7451C14.0093 11.2122 14.0327 11.9947 13.5713 12.4911C13.1042 12.9933 12.3217 13.0167 11.8253 12.5554L8.10541 9.08659ZM27.9603 56.6391L38.7579 55.1032C39.6864 51.1907 41.7069 48.8373 43.8968 46.297C45.6954 44.2064 47.6108 41.9756 49.0123 38.5069C50.0401 35.9666 50.4197 33.584 50.3613 31.3883C50.3029 29.1984 49.8007 27.1779 49.0532 25.3501C47.7101 22.0623 45.2516 19.4462 42.25 17.6709C39.8499 16.2519 37.1111 15.3701 34.3139 15.119C31.5284 14.862 28.6844 15.2299 26.0624 16.2986C22.9907 17.5541 20.2286 19.7849 18.2431 23.1427C16.7014 26.1326 15.989 28.994 15.9656 31.7445C15.9423 34.5125 16.6138 37.1929 17.8343 39.8033C19.0782 42.4662 20.7366 44.3582 22.325 46.1802C24.801 49.0183 27.1428 51.6987 27.9603 56.6391ZM38.3199 57.8479L28.2348 59.2786C28.264 59.921 28.2757 60.5925 28.264 61.305L38.2206 59.8918C38.2323 59.1735 38.2615 58.4902 38.3199 57.8479ZM28.3165 63.9795C28.3866 64.5168 28.4917 65.0073 28.626 65.4628L38.2907 64.2715C38.3549 63.7693 38.3666 63.2379 38.3199 62.6715V62.6598L38.3141 62.5605L28.3165 63.9795ZM29.9984 67.9739C30.3721 68.3651 30.7867 68.6688 31.2247 68.879C31.8963 69.2061 32.6379 69.3404 33.3679 69.2995C34.1212 69.2528 34.8687 69.025 35.5519 68.6279C36.1943 68.2542 36.7724 67.7345 37.2337 67.0804L29.9984 67.9739ZM33.3387 28.1473C35.9023 28.1473 37.987 30.2262 37.987 32.7957C37.987 35.3651 35.9081 37.4441 33.3387 37.4441C30.7692 37.4441 28.6903 35.3651 28.6903 32.7957C28.6903 30.2262 30.775 28.1473 33.3387 28.1473Z" fill="#FFF5FB"/>
</svg>
