<svg width="64" height="65" viewBox="0 0 64 65" fill="none" xmlns="http://www.w3.org/2000/svg">
<path d="M59.17 60.1718H23.925C23.8417 60.177 23.7583 60.177 23.675 60.1718C23.4761 60.1718 23.2853 60.0928 23.1447 59.9522C23.004 59.8115 22.925 59.6208 22.925 59.4218C22.925 59.2229 23.004 59.0322 23.1447 58.8915C23.2853 58.7509 23.4761 58.6718 23.675 58.6718C23.7638 58.6608 23.8455 58.6175 23.9045 58.5502C23.9635 58.483 23.9957 58.3963 23.995 58.3068C23.9924 58.2083 23.951 58.1147 23.8799 58.0464C23.8088 57.978 23.7136 57.9405 23.615 57.9418H22.5C22.3011 57.9418 22.1103 57.8628 21.9697 57.7222C21.829 57.5815 21.75 57.3908 21.75 57.1918V53.8168C21.75 53.6179 21.829 53.4272 21.9697 53.2865C22.1103 53.1459 22.3011 53.0668 22.5 53.0668H34.825C35.2228 53.0668 35.6044 52.9088 35.8857 52.6275C36.167 52.3462 36.325 51.9647 36.325 51.5668V31.3618C36.3233 31.1427 36.2756 30.9264 36.185 30.7268C36.0641 30.4682 35.872 30.2494 35.6311 30.0962C35.3901 29.9429 35.1105 29.8616 34.825 29.8618H22.5C22.3011 29.8618 22.1103 29.7828 21.9697 29.6422C21.829 29.5015 21.75 29.3108 21.75 29.1118V9.49184C21.7507 9.20556 21.8077 8.92221 21.9179 8.65797C22.028 8.39373 22.1891 8.15378 22.392 7.95181C22.5949 7.74984 22.8356 7.58982 23.1004 7.48087C23.3651 7.37192 23.6487 7.31618 23.935 7.31684H36.335C36.4587 7.31679 36.5805 7.34736 36.6896 7.40581C36.7986 7.46426 36.8915 7.54878 36.96 7.65184C37.0268 7.75542 37.0676 7.87362 37.079 7.99637C37.0903 8.11912 37.0718 8.24278 37.025 8.35684C36.9381 8.56406 36.8955 8.78717 36.9 9.01184V12.1868H46.195V9.01184C46.1995 8.78717 46.1569 8.56406 46.07 8.35684C46.0232 8.24278 46.0047 8.11912 46.016 7.99637C46.0274 7.87362 46.0682 7.75542 46.135 7.65184C46.2035 7.54878 46.2964 7.46426 46.4054 7.40581C46.5145 7.34736 46.6363 7.31679 46.76 7.31684H59.17C59.4563 7.31618 59.7399 7.37192 60.0046 7.48087C60.2694 7.58982 60.5101 7.74984 60.713 7.95181C60.9159 8.15378 61.077 8.39373 61.1871 8.65797C61.2973 8.92221 61.3543 9.20556 61.355 9.49184V57.9918C61.355 58.2785 61.2984 58.5624 61.1886 58.8272C61.0787 59.0921 60.9177 59.3326 60.7147 59.5351C60.5118 59.7376 60.2709 59.8981 60.0058 60.0073C59.7407 60.1166 59.4567 60.1725 59.17 60.1718ZM25.435 58.6718H59.17C59.2593 58.6725 59.3479 58.6556 59.4306 58.622C59.5134 58.5884 59.5887 58.5389 59.6523 58.4762C59.7159 58.4135 59.7666 58.3389 59.8013 58.2567C59.8361 58.1744 59.8543 58.0861 59.855 57.9968V9.49684C59.8543 9.40754 59.8361 9.31924 59.8013 9.23699C59.7666 9.15474 59.7159 9.08015 59.6523 9.01747C59.5887 8.95479 59.5134 8.90525 59.4306 8.87168C59.3479 8.83812 59.2593 8.82118 59.17 8.82184H47.67V12.9418C47.67 13.1408 47.591 13.3315 47.4503 13.4722C47.3097 13.6128 47.1189 13.6918 46.92 13.6918H36.15C35.9511 13.6918 35.7603 13.6128 35.6197 13.4722C35.479 13.3315 35.4 13.1408 35.4 12.9418V8.81684H23.9C23.8107 8.81618 23.7221 8.83312 23.6394 8.86668C23.5566 8.90025 23.4813 8.94979 23.4177 9.01247C23.3541 9.07515 23.3034 9.14974 23.2687 9.23199C23.2339 9.31424 23.2157 9.40254 23.215 9.49184V28.3618H34.825C35.3985 28.3618 35.96 28.5262 36.4429 28.8354C36.9259 29.1447 37.3101 29.5859 37.55 30.1068C37.7292 30.5011 37.8229 30.9288 37.825 31.3618V51.5618C37.825 52.3575 37.5089 53.1205 36.9463 53.6832C36.3837 54.2458 35.6207 54.5618 34.825 54.5618H23.24V56.4368H23.595C23.8429 56.4329 24.0891 56.4781 24.3194 56.5699C24.5497 56.6618 24.7595 56.7983 24.9367 56.9718C25.1139 57.1452 25.2549 57.3521 25.3516 57.5804C25.4483 57.8087 25.4987 58.0539 25.5 58.3018C25.4911 58.4271 25.4693 58.5511 25.435 58.6718Z" fill="black"/>
<path d="M57.365 56.9619H25.73C25.5311 56.9619 25.3403 56.8828 25.1997 56.7422C25.059 56.6015 24.98 56.4108 24.98 56.2119V53.8119C24.98 53.6129 25.059 53.4222 25.1997 53.2815C25.3403 53.1409 25.5311 53.0619 25.73 53.0619H34.825C35.2228 53.0619 35.6043 52.9038 35.8856 52.6225C36.1669 52.3412 36.325 51.9597 36.325 51.5619V31.3619C36.3233 31.1427 36.2756 30.9264 36.185 30.7269C36.0641 30.4682 35.8719 30.2494 35.631 30.0962C35.3901 29.9429 35.1105 29.8617 34.825 29.8619H25.73C25.5311 29.8619 25.3403 29.7828 25.1997 29.6422C25.059 29.5015 24.98 29.3108 24.98 29.1119V11.2769C24.98 11.0779 25.059 10.8872 25.1997 10.7465C25.3403 10.6059 25.5311 10.5269 25.73 10.5269H36.15C36.3489 10.5269 36.5397 10.6059 36.6803 10.7465C36.821 10.8872 36.9 11.0779 36.9 11.2769V12.1869H46.195V11.2769C46.195 11.0779 46.274 10.8872 46.4146 10.7465C46.5553 10.6059 46.7461 10.5269 46.945 10.5269H57.365C57.5639 10.5269 57.7547 10.6059 57.8953 10.7465C58.036 10.8872 58.115 11.0779 58.115 11.2769V56.2119C58.115 56.4108 58.036 56.6015 57.8953 56.7422C57.7547 56.8828 57.5639 56.9619 57.365 56.9619ZM26.48 55.4619H56.615V12.0269H47.695V12.9369C47.695 13.1358 47.616 13.3265 47.4753 13.4672C47.3347 13.6078 47.1439 13.6869 46.945 13.6869H36.15C35.9511 13.6869 35.7603 13.6078 35.6197 13.4672C35.479 13.3265 35.4 13.1358 35.4 12.9369V12.0269H26.5V28.3619H34.825C35.3985 28.3618 35.96 28.5262 36.4429 28.8355C36.9259 29.1447 37.3101 29.586 37.55 30.1069C37.7291 30.5011 37.8229 30.9288 37.825 31.3619V51.5619C37.825 52.3575 37.5089 53.1206 36.9463 53.6832C36.3837 54.2458 35.6206 54.5619 34.825 54.5619H26.5L26.48 55.4619Z" fill="black"/>
<path d="M46.945 13.6869H36.15C35.951 13.6869 35.7603 13.6078 35.6196 13.4672C35.479 13.3265 35.4 13.1358 35.4 12.9369V9.01186C35.3977 8.59049 35.4775 8.17271 35.635 7.78186C35.8881 7.14499 36.3264 6.59871 36.8933 6.21364C37.4602 5.82857 38.1296 5.62242 38.815 5.62186H44.28C44.9679 5.62261 45.6396 5.83049 46.2077 6.21844C46.7758 6.60638 47.2139 7.1564 47.465 7.79686C47.6198 8.18309 47.6979 8.59577 47.695 9.01186V12.9369C47.695 13.1358 47.6159 13.3265 47.4753 13.4672C47.3346 13.6078 47.1439 13.6869 46.945 13.6869ZM36.9 12.1869H46.195V9.01186C46.198 8.78408 46.1555 8.55798 46.07 8.34686C45.9298 7.98603 45.6839 7.67598 45.3645 7.45738C45.0451 7.23877 44.667 7.12182 44.28 7.12186H38.815C38.4303 7.12095 38.0543 7.2359 37.7359 7.45172C37.4176 7.66754 37.1716 7.97423 37.03 8.33186C36.9418 8.5476 36.8976 8.77879 36.9 9.01186V12.1869ZM33.875 23.3969H29.33C29.131 23.3969 28.9403 23.3178 28.7996 23.1772C28.659 23.0365 28.58 22.8458 28.58 22.6469V18.1469C28.58 17.9479 28.659 17.7572 28.7996 17.6165C28.9403 17.4759 29.131 17.3969 29.33 17.3969H33.875C34.0739 17.3969 34.2646 17.4759 34.4053 17.6165C34.5459 17.7572 34.625 17.9479 34.625 18.1469V22.6469C34.625 22.8458 34.5459 23.0365 34.4053 23.1772C34.2646 23.3178 34.0739 23.3969 33.875 23.3969ZM30.08 21.8969H33.125V18.8969H30.08V21.8969Z" fill="black"/>
<path d="M33.875 23.3969H29.33C29.131 23.3969 28.9403 23.3178 28.7996 23.1772C28.659 23.0365 28.58 22.8458 28.58 22.6469V18.1469C28.58 17.9479 28.659 17.7572 28.7996 17.6165C28.9403 17.4759 29.131 17.3969 29.33 17.3969H33.875C34.0739 17.3969 34.2646 17.4759 34.4053 17.6165C34.5459 17.7572 34.625 17.9479 34.625 18.1469V22.6469C34.625 22.8458 34.5459 23.0365 34.4053 23.1772C34.2646 23.3178 34.0739 23.3969 33.875 23.3969ZM30.08 21.8969H33.125V18.8969H30.08V21.8969Z" fill="black"/>
<path d="M33.875 27.4119H29.33C28.9157 27.4119 28.58 27.7477 28.58 28.1619V29.1119C28.58 29.5261 28.9157 29.8619 29.33 29.8619H33.875C34.2892 29.8619 34.625 29.5261 34.625 29.1119V28.1619C34.625 27.7477 34.2892 27.4119 33.875 27.4119Z" fill="black"/>
<path d="M40.535 21.0668H36.5C36.3011 21.0668 36.1103 20.9878 35.9697 20.8472C35.829 20.7065 35.75 20.5158 35.75 20.3168C35.75 20.1179 35.829 19.9272 35.9697 19.7865C36.1103 19.6459 36.3011 19.5668 36.5 19.5668H40.5C40.6989 19.5668 40.8897 19.6459 41.0303 19.7865C41.171 19.9272 41.25 20.1179 41.25 20.3168C41.25 20.5158 41.171 20.7065 41.0303 20.8472C40.8897 20.9878 40.6989 21.0668 40.5 21.0668H40.535ZM45.315 21.0668H42.85C42.6511 21.0668 42.4603 20.9878 42.3197 20.8472C42.179 20.7065 42.1 20.5158 42.1 20.3168C42.1 20.1179 42.179 19.9272 42.3197 19.7865C42.4603 19.6459 42.6511 19.5668 42.85 19.5668H45.315C45.5139 19.5668 45.7047 19.6459 45.8453 19.7865C45.986 19.9272 46.065 20.1179 46.065 20.3168C46.065 20.5158 45.986 20.7065 45.8453 20.8472C45.7047 20.9878 45.5139 21.0668 45.315 21.0668ZM52.265 21.0668H47.5C47.3011 21.0668 47.1103 20.9878 46.9697 20.8472C46.829 20.7065 46.75 20.5158 46.75 20.3168C46.75 20.1179 46.829 19.9272 46.9697 19.7865C47.1103 19.6459 47.3011 19.5668 47.5 19.5668H52.28C52.4789 19.5668 52.6697 19.6459 52.8103 19.7865C52.951 19.9272 53.03 20.1179 53.03 20.3168C53.03 20.5158 52.951 20.7065 52.8103 20.8472C52.6697 20.9878 52.4789 21.0668 52.28 21.0668H52.265ZM52.265 31.1668H48.265C48.0661 31.1668 47.8753 31.0878 47.7347 30.9472C47.594 30.8065 47.515 30.6158 47.515 30.4168C47.515 30.2179 47.594 30.0272 47.7347 29.8865C47.8753 29.7459 48.0661 29.6668 48.265 29.6668H52.265C52.4639 29.6668 52.6547 29.7459 52.7953 29.8865C52.936 30.0272 53.015 30.2179 53.015 30.4168C53.015 30.6158 52.936 30.8065 52.7953 30.9472C52.6547 31.0878 52.4639 31.1668 52.265 31.1668ZM45.93 31.1668H43.465C43.2661 31.1668 43.0753 31.0878 42.9347 30.9472C42.794 30.8065 42.715 30.6158 42.715 30.4168C42.715 30.2179 42.794 30.0272 42.9347 29.8865C43.0753 29.7459 43.2661 29.6668 43.465 29.6668H45.93C46.1289 29.6668 46.3197 29.7459 46.4603 29.8865C46.601 30.0272 46.68 30.2179 46.68 30.4168C46.68 30.6158 46.601 30.8065 46.4603 30.9472C46.3197 31.0878 46.1289 31.1668 45.93 31.1668ZM41.295 31.1668H39.435C39.2361 31.1668 39.0453 31.0878 38.9047 30.9472C38.764 30.8065 38.685 30.6158 38.685 30.4168C38.685 30.2179 38.764 30.0272 38.9047 29.8865C39.0453 29.7459 39.2361 29.6668 39.435 29.6668H41.295C41.4939 29.6668 41.6847 29.7459 41.8253 29.8865C41.966 30.0272 42.045 30.2179 42.045 30.4168C42.045 30.6158 41.966 30.8065 41.8253 30.9472C41.6847 31.0878 41.4939 31.1668 41.295 31.1668ZM45.315 40.8068H39.93C39.7311 40.8068 39.5403 40.7278 39.3997 40.5872C39.259 40.4465 39.18 40.2558 39.18 40.0568C39.18 39.8579 39.259 39.6672 39.3997 39.5265C39.5403 39.3859 39.7311 39.3068 39.93 39.3068H45.315C45.5139 39.3068 45.7047 39.3859 45.8453 39.5265C45.986 39.6672 46.065 39.8579 46.065 40.0568C46.065 40.2558 45.986 40.4465 45.8453 40.5872C45.7047 40.7278 45.5139 40.8068 45.315 40.8068ZM52.265 40.8068H47.5C47.3011 40.8068 47.1103 40.7278 46.9697 40.5872C46.829 40.4465 46.75 40.2558 46.75 40.0568C46.75 39.8579 46.829 39.6672 46.9697 39.5265C47.1103 39.3859 47.3011 39.3068 47.5 39.3068H52.28C52.4789 39.3068 52.6697 39.3859 52.8103 39.5265C52.951 39.6672 53.03 39.8579 53.03 40.0568C53.03 40.2558 52.951 40.4465 52.8103 40.5872C52.6697 40.7278 52.4789 40.8068 52.28 40.8068H52.265ZM52.265 50.8968H48.265C48.0661 50.8968 47.8753 50.8178 47.7347 50.6772C47.594 50.5365 47.515 50.3458 47.515 50.1468C47.515 49.9479 47.594 49.7572 47.7347 49.6165C47.8753 49.4759 48.0661 49.3968 48.265 49.3968H52.265C52.4639 49.3968 52.6547 49.4759 52.7953 49.6165C52.936 49.7572 53.015 49.9479 53.015 50.1468C53.015 50.3458 52.936 50.5365 52.7953 50.6772C52.6547 50.8178 52.4639 50.8968 52.265 50.8968ZM45.93 50.8968H41.125C40.9261 50.8968 40.7353 50.8178 40.5947 50.6772C40.454 50.5365 40.375 50.3458 40.375 50.1468C40.375 49.9479 40.454 49.7572 40.5947 49.6165C40.7353 49.4759 40.9261 49.3968 41.125 49.3968H45.93C46.1289 49.3968 46.3197 49.4759 46.4603 49.6165C46.601 49.7572 46.68 49.9479 46.68 50.1468C46.68 50.3458 46.601 50.5365 46.4603 50.6772C46.3197 50.8178 46.1289 50.8968 45.93 50.8968ZM28.71 24.4618C28.6102 24.4623 28.5114 24.4426 28.4195 24.404C28.3276 24.3653 28.2444 24.3085 28.175 24.2368C28.0345 24.0962 27.9556 23.9056 27.9556 23.7068C27.9556 23.5081 28.0345 23.3175 28.175 23.1768L35.77 15.6768C35.839 15.6035 35.9221 15.5448 36.0143 15.5043C36.1064 15.4638 36.2058 15.4422 36.3065 15.4409C36.4072 15.4397 36.5071 15.4587 36.6003 15.4968C36.6935 15.535 36.7781 15.5915 36.8489 15.6631C36.9198 15.7346 36.9755 15.8197 37.0128 15.9132C37.0501 16.0068 37.0682 16.1069 37.0659 16.2075C37.0637 16.3082 37.0412 16.4074 36.9998 16.4992C36.9584 16.591 36.899 16.6735 36.825 16.7418L29.23 24.2418C29.0922 24.3806 28.9055 24.4596 28.71 24.4618ZM20 42.1418C19.1466 42.1386 18.3204 41.8417 17.6601 41.3009C16.9999 40.7602 16.546 40.0086 16.3747 39.1726C16.2034 38.3366 16.3251 37.4671 16.7195 36.7103C17.1138 35.9534 17.7567 35.3555 18.54 35.0168C18.6539 34.9667 18.7786 34.946 18.9026 34.9565C19.0266 34.9669 19.1461 35.0083 19.25 35.0768C19.3527 35.146 19.4373 35.2389 19.4965 35.3477C19.5557 35.4565 19.5878 35.578 19.59 35.7018C19.5965 36.2846 19.832 36.8413 20.2454 37.252C20.6589 37.6626 21.2172 37.8943 21.8 37.8968C22.0978 37.8843 22.3916 37.8235 22.67 37.7168C22.7839 37.6691 22.9077 37.6502 23.0307 37.6618C23.1536 37.6735 23.2717 37.7153 23.3746 37.7835C23.4775 37.8518 23.562 37.9444 23.6205 38.0531C23.679 38.1619 23.7097 38.2834 23.71 38.4068C23.7086 39.1162 23.5038 39.8103 23.12 40.4068C22.7906 40.9377 22.3312 41.3757 21.7852 41.6793C21.2392 41.9829 20.6247 42.1421 20 42.1418ZM18.32 36.9918C18.122 37.2217 17.9735 37.4898 17.8836 37.7795C17.7938 38.0692 17.7645 38.3744 17.7977 38.6759C17.8309 38.9774 17.9258 39.2689 18.0765 39.5321C18.2272 39.7954 18.4305 40.0248 18.6737 40.2061C18.9169 40.3874 19.1948 40.5166 19.4901 40.5859C19.7855 40.6551 20.0919 40.6628 20.3903 40.6084C20.6887 40.5541 20.9728 40.4389 21.2248 40.27C21.4768 40.1012 21.6913 39.8822 21.855 39.6268C21.9078 39.5531 21.9562 39.4763 22 39.3968H21.8C21.0446 39.3955 20.3075 39.1648 19.6861 38.7354C19.0647 38.3059 18.5883 37.6979 18.32 36.9918Z" fill="black"/>
<path d="M37.555 30.1119C37.3151 29.591 36.9309 29.1497 36.448 28.8405C35.965 28.5312 35.4035 28.3668 34.83 28.3669H5.64001C4.84436 28.3669 4.0813 28.6829 3.51869 29.2455C2.95609 29.8081 2.64001 30.5712 2.64001 31.3669V51.5669C2.64001 52.3625 2.95609 53.1256 3.51869 53.6882C4.0813 54.2508 4.84436 54.5669 5.64001 54.5669H14.325L14.05 55.3969C13.9312 55.7686 13.8704 56.1565 13.87 56.5469C13.8753 57.5075 14.2596 58.4272 14.9393 59.1061C15.6191 59.7849 16.5394 60.1679 17.5 60.1719H23.595C23.6783 60.177 23.7618 60.177 23.845 60.1719C24.3105 60.1034 24.7331 59.8621 25.0285 59.496C25.3239 59.1298 25.4705 58.6657 25.4389 58.1963C25.4074 57.7269 25.2 57.2867 24.8583 56.9633C24.5165 56.64 24.0655 56.4574 23.595 56.4519H21.785C21.7469 56.4579 21.7081 56.4579 21.67 56.4519C21.6243 56.4369 21.5821 56.4127 21.546 56.3809C21.5099 56.3491 21.4807 56.3103 21.46 56.2669C21.4222 56.1739 21.4222 56.0698 21.46 55.9769L21.92 54.5969H34.825C35.6207 54.5969 36.3837 54.2808 36.9463 53.7182C37.5089 53.1556 37.825 52.3925 37.825 51.5969V31.3619C37.8227 30.931 37.7308 30.5053 37.555 30.1119ZM36.325 51.5619C36.325 51.9597 36.167 52.3412 35.8857 52.6225C35.6044 52.9038 35.2228 53.0619 34.825 53.0619H21.36C21.2043 53.0605 21.052 53.108 20.9246 53.1977C20.7973 53.2874 20.7012 53.4147 20.65 53.5619L20 55.4619C19.9203 55.6968 19.8881 55.9453 19.9051 56.1929C19.9222 56.4404 19.9882 56.6821 20.0993 56.904C20.2105 57.1258 20.3646 57.3234 20.5527 57.4852C20.7407 57.6471 20.9591 57.77 21.195 57.8469C21.3797 57.9042 21.5717 57.9346 21.765 57.9369H23.575C23.6736 57.9355 23.7688 57.9731 23.8399 58.0414C23.911 58.1097 23.9524 58.2033 23.955 58.3019C23.9557 58.3913 23.9235 58.478 23.8645 58.5453C23.8055 58.6125 23.7238 58.6558 23.635 58.6669H17.5C16.932 58.6669 16.3872 58.4415 15.985 58.0404C15.5829 57.6392 15.3563 57.0949 15.355 56.5269C15.355 56.2978 15.3904 56.0701 15.46 55.8519L16.065 54.0469C16.1051 53.9335 16.1173 53.8122 16.1007 53.6931C16.0841 53.574 16.0391 53.4607 15.9694 53.3627C15.8998 53.2646 15.8077 53.1848 15.7008 53.1298C15.5938 53.0748 15.4752 53.0464 15.355 53.0469H5.64001C5.24219 53.0469 4.86066 52.8888 4.57935 52.6075C4.29805 52.3262 4.14001 51.9447 4.14001 51.5469V31.3619C4.14001 30.964 4.29805 30.5825 4.57935 30.3012C4.86066 30.0199 5.24219 29.8619 5.64001 29.8619H34.825C35.1119 29.8611 35.393 29.9427 35.6349 30.0969C35.8769 30.2511 36.0695 30.4715 36.19 30.7319C36.2767 30.9307 36.3227 31.1449 36.325 31.3619V51.5619Z" fill="black"/>
<path d="M20 42.1419C19.1466 42.1386 18.3203 41.8417 17.6601 41.3009C16.9999 40.7602 16.546 40.0087 16.3747 39.1726C16.2034 38.3366 16.3251 37.4671 16.7194 36.7103C17.1138 35.9535 17.7566 35.3555 18.54 35.0169C18.6539 34.9668 18.7786 34.946 18.9026 34.9565C19.0266 34.967 19.1461 35.0083 19.25 35.0769C19.3527 35.146 19.4373 35.2389 19.4965 35.3477C19.5557 35.4565 19.5877 35.578 19.59 35.7019C19.5965 36.2846 19.8319 36.8413 20.2454 37.252C20.6589 37.6627 21.2172 37.8943 21.8 37.8969C22.0978 37.8843 22.3916 37.8235 22.67 37.7169C22.7838 37.6691 22.9077 37.6502 23.0306 37.6619C23.1536 37.6735 23.2717 37.7153 23.3746 37.7836C23.4775 37.8518 23.5619 37.9444 23.6204 38.0532C23.6789 38.1619 23.7097 38.2834 23.71 38.4069C23.7085 39.1162 23.5038 39.8103 23.12 40.4069C22.7906 40.9377 22.3311 41.3757 21.7851 41.6793C21.2392 41.9829 20.6247 42.1421 20 42.1419ZM18.32 36.9919C18.122 37.2217 17.9735 37.4898 17.8836 37.7795C17.7938 38.0693 17.7645 38.3744 17.7977 38.6759C17.8309 38.9774 17.9258 39.2689 18.0765 39.5321C18.2272 39.7954 18.4304 40.0248 18.6736 40.2061C18.9168 40.3874 19.1948 40.5166 19.4901 40.5859C19.7854 40.6551 20.0919 40.6628 20.3903 40.6084C20.6887 40.5541 20.9728 40.4389 21.2248 40.27C21.4767 40.1012 21.6913 39.8822 21.855 39.6269C21.9078 39.5531 21.9562 39.4763 22 39.3969H21.8C21.0446 39.3955 20.3075 39.1648 19.6861 38.7354C19.0647 38.3059 18.5883 37.698 18.32 36.9919ZM17.93 48.1819H11.715C11.5161 48.1819 11.3253 48.1028 11.1846 47.9622C11.044 47.8215 10.965 47.6308 10.965 47.4319C10.965 47.2329 11.044 47.0422 11.1846 46.9015C11.3253 46.7609 11.5161 46.6819 11.715 46.6819H17.93C18.1289 46.6819 18.3196 46.7609 18.4603 46.9015C18.6009 47.0422 18.68 47.2329 18.68 47.4319C18.68 47.6308 18.6009 47.8215 18.4603 47.9622C18.3196 48.1028 18.1289 48.1819 17.93 48.1819ZM27.68 48.1819H21.465C21.2661 48.1819 21.0753 48.1028 20.9346 47.9622C20.794 47.8215 20.715 47.6308 20.715 47.4319C20.715 47.2329 20.794 47.0422 20.9346 46.9015C21.0753 46.7609 21.2661 46.6819 21.465 46.6819H27.68C27.8789 46.6819 28.0696 46.7609 28.2103 46.9015C28.3509 47.0422 28.43 47.2329 28.43 47.4319C28.43 47.6308 28.3509 47.8215 28.2103 47.9622C28.0696 48.1028 27.8789 48.1819 27.68 48.1819Z" fill="black"/>
</svg>
