<svg width="64" height="65" viewBox="0 0 64 65" fill="none" xmlns="http://www.w3.org/2000/svg">
<path d="M14.5125 28.1968V57.3343L18.1875 61.0843H45.8125L49.4874 57.3343V28.1968H14.5125Z" fill="#ED1E79"/>
<path d="M40.2999 13.3843H23.7L14.5125 19.4968V28.1968H49.4874V19.4968L40.2999 13.3843ZM32 20.9843C30.575 20.9843 29.4125 19.8218 29.4125 18.3968C29.4125 16.9718 30.575 15.8093 32 15.8093C33.4249 15.8093 34.5875 16.9718 34.5875 18.3968C34.5875 19.8218 33.4249 20.9843 32 20.9843Z" fill="#FEBE20"/>
<path d="M34.5876 4.70935H34.375C31.925 4.70935 29.925 6.70935 29.925 9.15935V15.4844C29.925 15.8969 29.975 16.2844 30.0875 16.6594C30.5875 18.4469 32.175 19.7969 34.1 19.9094C34.4 19.4844 34.5876 18.9594 34.5876 18.3969C34.5876 18.2344 34.575 18.0719 34.5375 17.9094H34.375C33.1375 17.9094 32.1125 16.9844 31.9625 15.7969C31.95 15.6844 31.9375 15.5844 31.9375 15.4719V9.13435C31.9375 7.78435 33.0375 6.69685 34.375 6.69685H34.5625C35.9125 6.69685 37 7.79685 37 9.13435V13.3844H39.0126V9.13435C39.0126 6.69685 37.0376 4.70935 34.5876 4.70935Z" fill="#662D91"/>
<path d="M25.25 41.8218C27.425 41.8218 29.1875 40.0593 29.1875 37.8843C29.1875 35.7093 27.425 33.9468 25.25 33.9468C23.075 33.9468 21.3125 35.7093 21.3125 37.8843C21.3125 40.0593 23.075 41.8218 25.25 41.8218ZM25.25 36.0718C26.25 36.0718 27.0625 36.8843 27.0625 37.8843C27.0625 38.8843 26.25 39.6968 25.25 39.6968C24.25 39.6968 23.4375 38.8843 23.4375 37.8843C23.4375 36.8843 24.25 36.0718 25.25 36.0718ZM38.75 47.4468C36.575 47.4468 34.8125 49.2093 34.8125 51.3843C34.8125 53.5593 36.575 55.3218 38.75 55.3218C40.925 55.3218 42.6875 53.5593 42.6875 51.3843C42.6875 49.2093 40.925 47.4468 38.75 47.4468ZM38.75 53.1968C37.75 53.1968 36.9375 52.3843 36.9375 51.3843C36.9375 50.3843 37.75 49.5718 38.75 49.5718C39.75 49.5718 40.5625 50.3843 40.5625 51.3843C40.5625 52.3843 39.75 53.1968 38.75 53.1968Z" fill="#F2F2F2"/>
<path d="M39.9424 33.9856L21.3104 52.6182L24.0328 55.3405L42.6648 36.7079L39.9424 33.9856Z" fill="#F2F2F2"/>
</svg>
