<svg width="64" height="65" viewBox="0 0 64 65" fill="none" xmlns="http://www.w3.org/2000/svg">
<path d="M39.4272 17.5052H26.0898V16.5052H39.4272V17.5052ZM57.5 27.055V51.1771H56.5V46.8988H55.2861V49.9691H54.2861V46.8988H52.9721V49.9691H51.9721V46.8988H44.9267V49.4818C44.9298 50.439 44.7171 51.3846 44.3044 52.2483C43.8916 53.1119 43.2895 53.8714 42.5428 54.4703C41.7961 55.0691 40.9239 55.492 39.9913 55.7073C39.0586 55.9226 38.0894 55.9249 37.1557 55.7141V55.8705H15.663V55.6394C14.3119 55.2705 13.1193 54.4683 12.2683 53.3558C11.4173 52.2434 10.9551 50.8824 10.9526 49.4818V48.9818H16.5463V43.4308C15.9858 43.4084 15.4279 43.3419 14.8779 43.2318L14.561 43.1654L14.0668 40.9066C13.8998 40.8441 13.7337 40.7758 13.5683 40.7016L11.4726 41.8646L11.2192 41.6957C10.0069 40.8919 8.97414 39.8459 8.18595 38.6234L7.99454 38.3275L9.34024 36.5716C9.29337 36.474 9.24845 36.3744 9.20499 36.2738L6.91895 35.8685L6.83838 35.558C6.38295 33.7957 6.38732 31.946 6.85107 30.1859L6.93359 29.8753L9.22119 29.4828C9.25488 29.4056 9.28955 29.3294 9.32519 29.2533L8.05708 27.3636L8.24067 27.0863C9.04823 25.8674 10.0972 24.8271 11.3227 24.0296L11.5737 23.8675L13.6982 25.0355C13.8105 24.9867 13.9238 24.9418 14.0385 24.8978L14.5761 22.6244L14.8871 22.5599C15.4341 22.4506 15.9889 22.3846 16.5463 22.3627V16.3118C16.5482 14.6181 17.2218 12.9943 18.4194 11.7966C19.617 10.5989 21.2408 9.92518 22.9345 9.92316H50.3154C52.0091 9.92518 53.6329 10.5989 54.8304 11.7966C56.028 12.9943 56.7017 14.6181 56.7036 16.3118V16.8118H44.9233L44.8516 27.055H57.5ZM50.3154 10.9232C48.9732 10.9247 47.6798 11.4264 46.6876 12.3304C45.6955 13.2343 45.0758 14.4756 44.9497 15.8118H55.6807C55.5546 14.4756 54.9351 13.2344 53.943 12.3304C52.9509 11.4265 51.6575 10.9247 50.3154 10.9232ZM16.5464 42.4353V37.4249C15.3819 37.3044 14.3033 36.7564 13.5193 35.887C12.7352 35.0176 12.3012 33.8884 12.3012 32.7176C12.3012 31.5469 12.7352 30.4177 13.5193 29.5483C14.3033 28.6788 15.3819 28.1309 16.5464 28.0104V23.3584C16.1628 23.3757 15.7806 23.416 15.4019 23.4789L14.8857 25.6605L14.6245 25.7504C14.3735 25.8358 14.1272 25.9346 13.8867 26.0463L13.6567 26.1537L11.6206 25.0345C10.7065 25.6702 9.90857 26.4584 9.26167 27.3646L10.4819 29.182L10.3461 29.4447C10.2333 29.6623 10.1318 29.8856 10.0419 30.1136L9.93843 30.3744L7.74116 30.7513C7.42287 32.1481 7.41954 33.5982 7.7314 34.9964L9.9272 35.3861L10.0292 35.6478C10.1292 35.9035 10.2431 36.1536 10.3705 36.3968L10.518 36.679L9.22114 38.3714C9.84945 39.2721 10.6287 40.0574 11.5244 40.6927L13.5336 39.5775L13.767 39.6908C14.0543 39.8309 14.3505 39.952 14.6538 40.0531L14.9238 40.1429L15.3984 42.3138C15.7782 42.3773 16.1616 42.4179 16.5464 42.4353ZM13.3013 32.7171C13.3039 33.6227 13.6338 34.4967 14.2302 35.1781C14.8266 35.8595 15.6492 36.3023 16.5464 36.4249V29.0104C15.6493 29.1328 14.8268 29.5755 14.2304 30.2567C13.634 30.9379 13.3041 31.8118 13.3013 32.7171ZM43.9267 46.8988H31.1967V27.055H43.8516L43.9267 16.308C43.9281 15.2328 44.2012 14.1754 44.7206 13.234C45.2401 12.2926 45.989 11.4977 46.8978 10.9232H22.9345C21.5059 10.9248 20.1363 11.493 19.1261 12.5033C18.116 13.5135 17.5478 14.8832 17.5463 16.3118V48.9818H27.7924V49.9818H11.9755C12.1016 51.318 12.7211 52.5593 13.7132 53.4633C14.7053 54.3672 15.9986 54.8689 17.3408 54.8705H35.1105C34.2753 54.339 33.5749 53.6207 33.0646 52.7724C32.5543 51.924 32.248 50.9687 32.1699 49.9818H30.02V48.9818H33.1503V49.4818C33.1494 50.19 33.288 50.8915 33.5584 51.5461C33.8287 52.2006 34.2254 52.7955 34.7259 53.2966C35.2263 53.7977 35.8206 54.1953 36.4748 54.4665C37.129 54.7377 37.8303 54.8774 38.5385 54.8774C39.2467 54.8774 39.948 54.7377 40.6022 54.4665C41.2564 54.1953 41.8507 53.7977 42.3511 53.2966C42.8516 52.7955 43.2483 52.2006 43.5186 51.5461C43.789 50.8915 43.9277 50.19 43.9267 49.4818L43.9267 46.8988ZM45.3696 41.0814C45.3696 40.3928 45.1655 39.7197 44.783 39.1471C44.4005 38.5745 43.8567 38.1282 43.2205 37.8646C42.5844 37.601 41.8843 37.532 41.2089 37.6663C40.5335 37.8006 39.9131 38.1321 39.4262 38.619C38.9392 39.1059 38.6075 39.7263 38.4732 40.4016C38.3388 41.077 38.4077 41.7771 38.6711 42.4133C38.9346 43.0495 39.3808 43.5933 39.9534 43.9759C40.5259 44.3585 41.199 44.5628 41.8876 44.5628C42.8107 44.5619 43.6958 44.1948 44.3485 43.5421C45.0013 42.8895 45.3685 42.0045 45.3696 41.0814ZM56.5 28.055H51.956V34.679H50.956V28.055H47.5351V45.8988H56.5V28.055ZM54.2861 52.9847H55.2861V51.4095H54.2861V52.9847ZM56.5 54.1927H57.5V52.6175H56.5V54.1927ZM24.1303 16.5052H22.2666V17.5052H24.1303V16.5052ZM39.4272 24.472H22.2666V25.472H39.4272V24.472ZM41.4716 40.9818L40.8388 40.2162L40.0683 40.8529L41.3212 42.3685L43.9862 40.2826L43.37 39.4955L41.4716 40.9818ZM39.4272 18.9398H22.2666V19.9398H39.4272V18.9398ZM39.4272 21.7054H22.2666V22.7054H39.4272V21.7054Z" fill="black"/>
</svg>
