<svg width="64" height="65" viewBox="0 0 64 65" fill="none" xmlns="http://www.w3.org/2000/svg">
<path d="M36.0533 31.4302L42.5866 26.2035C43.0133 25.8568 43.0933 25.2168 42.7466 24.7902C42.4 24.3635 41.76 24.2835 41.3333 24.6302L34.6666 29.9902C34.2666 29.7768 33.8133 29.6168 33.3066 29.6168C32.4533 29.6168 31.7066 29.9635 31.1466 30.5502L27.6533 28.6035C27.6533 28.6035 27.7066 28.4702 27.7066 28.3902C27.7066 26.7368 26.3466 25.3768 24.6933 25.3768C23.04 25.3768 21.68 26.7368 21.68 28.3902C21.68 28.6568 21.76 28.8968 21.84 29.1368L18.6933 31.4568C18.24 31.7768 18.16 32.4168 18.48 32.8435C18.6666 33.1102 18.9866 33.2435 19.28 33.2435C19.4933 33.2435 19.7066 33.1902 19.8666 33.0568L22.96 30.7635C23.4666 31.1102 24.0266 31.3768 24.6933 31.3768C25.5466 31.3768 26.32 31.0035 26.8533 30.4168L30.32 32.3635C30.32 32.3635 30.2666 32.5235 30.2666 32.6035C30.2666 34.2568 31.6266 35.6168 33.28 35.6168C34.9333 35.6168 36.2933 34.2568 36.2933 32.6035C36.2933 32.1768 36.1866 31.7768 36.0266 31.4035L36.0533 31.4302ZM24.6933 29.4035C24.1333 29.4035 23.68 28.9502 23.68 28.3902C23.68 27.8302 24.1333 27.3768 24.6933 27.3768C25.2533 27.3768 25.7066 27.8302 25.7066 28.3902C25.7066 28.9502 25.2533 29.4035 24.6933 29.4035ZM33.3066 33.6435C32.7466 33.6435 32.2933 33.1902 32.2933 32.6302C32.2933 32.0702 32.7466 31.6168 33.3066 31.6168C33.8666 31.6168 34.32 32.0702 34.32 32.6302C34.32 33.1902 33.8666 33.6435 33.3066 33.6435ZM33.04 15.3235H43.6266C44.1866 15.3235 44.64 14.8702 44.64 14.3102C44.64 13.7502 44.1866 13.2968 43.6266 13.2968H33.04C32.48 13.2968 32.0266 13.7502 32.0266 14.3102C32.0266 14.8702 32.48 15.3235 33.04 15.3235ZM33.04 19.6435H43.6266C44.1866 19.6435 44.64 19.1902 44.64 18.6302C44.64 18.0702 44.1866 17.6168 43.6266 17.6168H33.04C32.48 17.6168 32.0266 18.0702 32.0266 18.6302C32.0266 19.1902 32.48 19.6435 33.04 19.6435ZM34.16 44.2302H18.8C18.24 44.2302 17.7866 44.6835 17.7866 45.2435C17.7866 45.8035 18.24 46.2568 18.8 46.2568H34.1866C34.7466 46.2568 35.2 45.8035 35.2 45.2435C35.2 44.6835 34.7466 44.2302 34.1866 44.2302H34.16ZM34.16 48.5502H18.8C18.24 48.5502 17.7866 49.0035 17.7866 49.5635C17.7866 50.1235 18.24 50.5768 18.8 50.5768H34.1866C34.7466 50.5768 35.2 50.1235 35.2 49.5635C35.2 49.0035 34.7466 48.5502 34.1866 48.5502H34.16Z" fill="black"/>
<path d="M50.72 54.9502V54.7902C50.72 53.5902 50 52.5769 48.96 52.1235V51.0569C48.96 50.8435 48.9067 50.6302 48.8267 50.3635C47.92 48.1769 47.7867 45.5635 47.8133 43.7769C48.7733 43.5902 49.4933 42.7902 49.4933 41.7769V41.0835H49.7067C50.2667 41.0835 50.72 40.6302 50.72 40.0702V36.7902C50.72 35.8835 50 35.1635 49.1467 35.1635H48.9867V8.71019C48.9867 7.43019 47.9467 6.36353 46.64 6.36353H14.5867C13.3067 6.36353 12.24 7.40353 12.24 8.71019V55.6969C12.24 56.9769 13.28 58.0435 14.5867 58.0435H38.64V58.4169C38.64 58.9769 39.0933 59.4302 39.6533 59.4302H51.0133C51.5733 59.4302 52.0267 58.9769 52.0267 58.4169V57.0035C52.0267 56.1235 51.4933 55.3502 50.7733 54.9769L50.72 54.9502ZM41.8933 39.0835V37.1635H42.72V37.2169C42.72 38.1235 43.44 38.8435 44.32 38.8435H46.32C47.2 38.8435 47.8933 38.1235 47.8933 37.2169L48.72 37.1635V39.0835H41.8933ZM46.96 51.0569V51.9102H43.6533V51.1102C44.6133 48.7369 44.8 45.9902 44.7733 43.8302H45.84C45.84 45.7769 46 48.6569 46.9867 51.0569H46.96ZM42.7733 53.9102H47.84C48.2933 53.9102 48.64 54.2302 48.72 54.6569H41.8933C41.9467 54.2302 42.32 53.9102 42.7733 53.9102ZM47.52 41.7769C47.52 41.7769 47.4933 41.8569 47.44 41.8569L43.0933 41.7769V41.0835H47.4933V41.7769H47.52ZM14.24 55.6969V8.71019C14.24 8.52353 14.4 8.39019 14.56 8.39019H46.64C46.8267 8.39019 46.96 8.55019 46.96 8.71019V35.2702C46.32 35.4835 45.8667 36.0702 45.8667 36.7902L44.6933 36.8435V36.7902C44.6933 35.8835 43.9733 35.1635 43.12 35.1635H41.4667C40.5867 35.1635 39.8933 35.8835 39.8933 36.7902V40.0702C39.8933 40.6302 40.3467 41.0835 40.9067 41.0835H41.12V41.7769C41.12 42.7635 41.84 43.5635 42.7733 43.7502C42.8 46.3369 42.48 48.6835 41.76 50.4969C41.7333 50.6302 41.68 50.8169 41.68 51.0569V52.1235C40.64 52.5502 39.92 53.5902 39.92 54.7902V54.9502C39.4667 55.1902 39.0933 55.5635 38.88 56.0169H14.5867C14.4 56.0169 14.2667 55.8569 14.2667 55.6969H14.24ZM49.9733 57.4035H40.6133V56.9769C40.6133 56.7902 40.7733 56.6569 40.9333 56.6569H49.6267C49.8133 56.6569 49.9467 56.8169 49.9467 56.9769V57.4035H49.9733Z" fill="black"/>
<path d="M22.7466 22.6302C26.1333 22.6302 28.8799 19.8835 28.8799 16.4969C28.8799 13.1102 26.1333 10.3635 22.7466 10.3635C19.3599 10.3635 16.6133 13.1102 16.6133 16.4969C16.6133 19.8835 19.3599 22.6302 22.7466 22.6302ZM25.7333 19.3502L24.5599 17.5102H26.7466C26.5599 18.2035 26.2133 18.8435 25.7333 19.3502ZM26.7466 15.5102H23.7599V12.5235C25.2266 12.8969 26.3733 14.0435 26.7466 15.5102ZM21.7599 12.5235V16.4969C21.7599 16.6835 21.8133 16.8702 21.9199 17.0302L24.0533 20.3902C23.6533 20.5235 23.2266 20.6035 22.7733 20.6035C20.5066 20.6035 18.6399 18.7635 18.6399 16.4702C18.6399 14.5502 19.9733 12.9235 21.7599 12.4969V12.5235Z" fill="black"/>
</svg>
