<svg width="64" height="65" viewBox="0 0 64 65" fill="none" xmlns="http://www.w3.org/2000/svg">
<path d="M20.7826 8.08036C23.1632 6.25927 24.867 5.41079 29.2209 4.58073C29.4686 4.52755 29.6857 4.37954 29.8256 4.16836C29.9656 3.95719 30.0174 3.69962 29.9699 3.45076C29.9223 3.20191 29.7793 2.98153 29.5714 2.83678C29.3635 2.69203 29.1071 2.63441 28.8573 2.67624C24.1135 3.58097 22.3409 4.44691 19.6044 6.54048C19.5001 6.61665 19.412 6.7129 19.3454 6.82357C19.2788 6.93424 19.2349 7.05711 19.2164 7.18497C19.198 7.31282 19.2052 7.44308 19.2378 7.56809C19.2703 7.6931 19.3275 7.81034 19.406 7.91294C19.4845 8.01554 19.5827 8.10141 19.6949 8.16553C19.807 8.22965 19.9308 8.27071 20.0591 8.2863C20.1873 8.3019 20.3174 8.29172 20.4416 8.25635C20.5659 8.22099 20.6818 8.16115 20.7826 8.08036ZM33.0124 4.07163C34.8665 4.16473 36.7021 4.55648 38.4699 5.23333C38.589 5.28009 38.7161 5.30282 38.8441 5.3002C38.972 5.29759 39.0981 5.26968 39.2152 5.21809C39.3323 5.16651 39.438 5.09225 39.5263 4.99962C39.6146 4.90699 39.6836 4.7978 39.7295 4.67836C39.7754 4.55891 39.7971 4.43157 39.7936 4.30367C39.79 4.17577 39.7612 4.04984 39.7087 3.93314C39.6562 3.81643 39.5812 3.71127 39.4879 3.6237C39.3946 3.53613 39.2849 3.46789 39.1651 3.42291C37.2212 2.67386 35.1706 2.23853 33.09 2.13321C32.3104 2.11285 31.9477 2.57927 31.9962 3.18533C32.035 3.68376 32.515 4.05806 33.0124 4.07163ZM13.9889 16.9521C18.5969 12.8038 24.0379 10.0062 29.7242 8.86194C29.971 8.80591 30.1861 8.65561 30.3236 8.44313C30.4611 8.23065 30.5101 7.97283 30.4601 7.72473C30.4101 7.47663 30.2651 7.25791 30.056 7.11528C29.8469 6.97264 29.5904 6.91739 29.3411 6.96133C23.3154 8.17345 17.5574 11.131 12.6914 15.5112C12.5062 15.6847 12.3964 15.924 12.3856 16.1776C12.3748 16.4313 12.4639 16.679 12.6338 16.8677C12.8036 17.0563 13.0407 17.1709 13.2941 17.1866C13.5475 17.2024 13.7969 17.1182 13.9889 16.9521ZM33.3033 6.42024C33.1763 6.42946 33.0523 6.46361 32.9385 6.52074C32.8247 6.57788 32.7232 6.65687 32.6399 6.75323C32.5566 6.84958 32.4931 6.96139 32.453 7.08229C32.413 7.20318 32.3971 7.33079 32.4064 7.45782C32.4451 7.99115 32.9184 8.38388 33.4439 8.35479C38.6977 7.97757 42.3554 8.92982 45.5719 10.0808C45.7495 10.1672 45.9493 10.197 46.1443 10.1663C46.3394 10.1356 46.5203 10.0459 46.6628 9.90921C46.7818 9.79415 46.8696 9.65072 46.918 9.49241C46.9663 9.33409 46.9736 9.16609 46.9392 9.00417C46.9048 8.84226 46.8298 8.69175 46.7212 8.56679C46.6127 8.44184 46.4741 8.34652 46.3186 8.28982C45.2093 7.8903 41.6912 6.8023 41.4798 6.78194C39.4211 6.62582 37.0163 6.15164 33.3033 6.42024ZM30.465 11.1233C30.3399 11.147 30.2207 11.1952 30.1142 11.265C30.0077 11.3348 29.916 11.4249 29.8443 11.5302C29.7726 11.6355 29.7224 11.7538 29.6964 11.8785C29.6705 12.0032 29.6694 12.1317 29.6931 12.2568C29.7159 12.3825 29.7635 12.5024 29.8331 12.6095C29.9027 12.7166 29.993 12.8088 30.0986 12.8807C30.2042 12.9525 30.3231 13.0026 30.4482 13.028C30.5734 13.0535 30.7024 13.0537 30.8277 13.0287C35.6238 12.1211 38.8626 12.8804 40.3482 12.9589C41.7581 13.4806 46.0306 14.2127 50.6367 17.6493C50.8428 17.8031 51.1016 17.8687 51.3561 17.8317C51.6106 17.7947 51.84 17.6581 51.9937 17.452C52.1475 17.2459 52.2132 16.9871 52.1761 16.7326C52.1391 16.4781 52.0025 16.2487 51.7964 16.0949C46.1295 11.8651 38.4951 9.60376 30.465 11.1233ZM9.4546 27.7322C9.67308 27.8679 9.93649 27.9112 10.1869 27.8526C10.4373 27.7941 10.6542 27.6385 10.7899 27.42C14.7714 21.0035 20.6032 16.2326 27.2107 13.9839C27.3313 13.9428 27.4426 13.8784 27.5383 13.7943C27.634 13.7102 27.7122 13.6081 27.7685 13.4938C27.8247 13.3795 27.8579 13.2552 27.8661 13.1281C27.8743 13.0009 27.8574 12.8734 27.8163 12.7528C27.7752 12.6323 27.7108 12.5209 27.6267 12.4252C27.5426 12.3295 27.4405 12.2513 27.3262 12.1951C27.2119 12.1389 27.0876 12.1057 26.9605 12.0975C26.8334 12.0893 26.7059 12.1062 26.5853 12.1473C19.555 14.5405 13.3586 19.6013 9.14236 26.397C9.00671 26.6154 8.9634 26.8789 9.02195 27.1293C9.08051 27.3797 9.23613 27.5966 9.4546 27.7322ZM9.81145 39.1019C10.2691 39.1019 10.6541 38.78 10.755 38.3514C12.7487 30.7635 17.185 24.7194 22.7385 20.9773C22.8441 20.9061 22.9347 20.8149 23.005 20.7087C23.0754 20.6025 23.1241 20.4835 23.1485 20.3584C23.1728 20.2334 23.1723 20.1048 23.147 19.98C23.1216 19.8552 23.072 19.7365 23.0008 19.6309C22.9296 19.5253 22.8383 19.4347 22.7321 19.3644C22.6259 19.294 22.5069 19.2453 22.3819 19.2209C22.2569 19.1965 22.1283 19.1971 22.0034 19.2224C21.8786 19.2477 21.76 19.2974 21.6544 19.3686C15.6713 23.4025 10.9799 29.8607 8.87278 37.8821C8.75642 38.3281 9.01145 39.1019 9.81145 39.1019Z" fill="black"/>
<path d="M47.4017 18.3339C40.863 14.3572 32.8213 13.7026 25.1423 17.371C25.0257 17.4248 24.921 17.5012 24.8342 17.5958C24.7474 17.6904 24.6802 17.8012 24.6366 17.922C24.5929 18.0427 24.5737 18.1709 24.58 18.2992C24.5863 18.4274 24.6181 18.5531 24.6733 18.669C24.7286 18.7849 24.8063 18.8886 24.902 18.9742C24.9977 19.0598 25.1094 19.1255 25.2307 19.1676C25.352 19.2097 25.4805 19.2273 25.6086 19.2193C25.7368 19.2114 25.862 19.1781 25.9772 19.1213C32.9842 15.7739 40.3307 16.3034 46.3942 19.9911C46.503 20.0573 46.6238 20.1015 46.7496 20.121C46.8755 20.1406 47.004 20.1351 47.1278 20.105C47.2515 20.0749 47.3682 20.0207 47.471 19.9455C47.5738 19.8703 47.6608 19.7756 47.727 19.6668C47.7932 19.5579 47.8374 19.4372 47.8569 19.3113C47.8764 19.1854 47.871 19.0569 47.8409 18.9332C47.8108 18.8094 47.7566 18.6928 47.6814 18.59C47.6062 18.4871 47.5105 18.4001 47.4017 18.3339ZM50.6589 20.7291C50.4649 20.5653 50.2145 20.4842 49.9614 20.5031C49.7083 20.5219 49.4726 20.6393 49.3051 20.83C49.1375 21.0206 49.0514 21.2694 49.0652 21.5228C49.079 21.7763 49.1916 22.0142 49.3789 22.1855C50.8991 23.5274 52.2251 25.0744 53.3188 26.7819C53.4 26.9414 53.5238 27.0752 53.6765 27.1685C53.8292 27.2618 54.0048 27.3109 54.1837 27.3104C54.9469 27.3104 55.4104 26.4609 55.0022 25.8151C53.8009 23.9236 52.3394 22.2113 50.6589 20.7291Z" fill="black"/>
<path d="M39.7382 19.7439C39.4927 19.6714 39.2285 19.6989 39.0032 19.8205C38.778 19.942 38.6099 20.1477 38.5356 20.3927C38.4614 20.6377 38.487 20.9021 38.607 21.1282C38.7269 21.3544 38.9314 21.5239 39.1758 21.5999C39.5123 21.8035 49.1928 23.4249 52.2182 34.9429C53.058 38.1167 52.9659 41.0598 52.9717 41.1606C52.9702 41.288 52.9937 41.4144 53.041 41.5326C53.0884 41.6508 53.1585 41.7586 53.2475 41.8497C53.3364 41.9409 53.4425 42.0136 53.5595 42.0637C53.6766 42.1139 53.8024 42.1404 53.9298 42.142H53.9414C54.1964 42.142 54.4412 42.0415 54.6227 41.8624C54.8041 41.6833 54.9078 41.4399 54.9111 41.1849C54.9014 41.0181 55.0323 37.9965 54.0927 34.4484C50.7375 21.6736 40.1765 20.0096 39.7382 19.7439ZM13.0202 39.0835C12.1106 42.6501 11.842 46.4571 12.3918 50.14C12.4323 50.3921 12.5705 50.6181 12.7766 50.7689C12.9826 50.9197 13.2398 50.9831 13.4923 50.9455C13.7448 50.9078 13.9723 50.7721 14.1254 50.5677C14.2784 50.3634 14.3447 50.1069 14.3099 49.854C13.8318 46.6656 13.9928 43.1204 14.8995 39.5626C14.9317 39.4389 14.9392 39.3101 14.9215 39.1835C14.9038 39.057 14.8612 38.9352 14.7963 38.8251C14.7313 38.7151 14.6453 38.6189 14.5431 38.5422C14.4408 38.4655 14.3245 38.4098 14.2006 38.3783C14.0768 38.3467 13.948 38.3399 13.8215 38.3583C13.6951 38.3767 13.5735 38.4199 13.4638 38.4855C13.3541 38.551 13.2584 38.6376 13.1823 38.7402C13.1062 38.8429 13.0511 38.9595 13.0202 39.0835ZM14.2672 35.2765C14.2184 35.3947 14.1935 35.5215 14.194 35.6493C14.1944 35.7772 14.2201 35.9038 14.2696 36.0217C14.3191 36.1396 14.3915 36.2466 14.4825 36.3364C14.5735 36.4263 14.6814 36.4972 14.8 36.5452C14.9186 36.5931 15.0454 36.6172 15.1733 36.6159C15.3012 36.6146 15.4276 36.588 15.5452 36.5377C15.6628 36.4874 15.7692 36.4143 15.8584 36.3227C15.9477 36.231 16.0179 36.1227 16.065 36.0038C22.2226 20.766 35.5113 21.245 35.6083 21.2101C35.7053 21.1674 36.579 21.1567 36.5877 20.2501C36.5903 19.9932 36.4909 19.7458 36.3112 19.5622C36.1316 19.3786 35.8865 19.2738 35.6296 19.2707L35.4822 19.2697C26.6609 19.2697 18.1344 25.7027 14.2672 35.2765Z" fill="black"/>
<path d="M35.1467 23.58C27.9205 23.7371 20.1358 29.7609 17.3722 39.483C17.3373 39.6056 17.327 39.7337 17.3417 39.8602C17.3564 39.9867 17.3959 40.1091 17.4579 40.2203C17.5199 40.3316 17.6032 40.4296 17.703 40.5086C17.8029 40.5877 17.9173 40.6463 18.0398 40.6811C18.1623 40.7159 18.2905 40.7263 18.417 40.7116C18.5435 40.6969 18.6659 40.6574 18.7771 40.5954C18.8884 40.5334 18.9863 40.4501 19.0654 40.3503C19.1444 40.2504 19.203 40.136 19.2379 40.0135C21.8056 30.9769 28.8912 25.6561 35.1884 25.5194C35.3158 25.5166 35.4413 25.4888 35.5579 25.4375C35.6745 25.3862 35.7798 25.3124 35.8679 25.2204C35.956 25.1283 36.0251 25.0199 36.0712 24.9011C36.1173 24.7824 36.1396 24.6557 36.1368 24.5284C36.1251 23.9941 35.6888 23.5849 35.1467 23.58ZM16.5819 43.4336C15.5462 52.1909 19.3717 60.3664 27.1613 62.9575L28.5809 63.4103C28.7022 63.4492 28.8299 63.4637 28.9569 63.4532C29.0838 63.4427 29.2074 63.4072 29.3206 63.3489C29.4339 63.2906 29.5345 63.2106 29.6168 63.1134C29.6991 63.0162 29.7614 62.9037 29.8003 62.7824C29.8391 62.6611 29.8537 62.5334 29.8432 62.4065C29.8326 62.2795 29.7972 62.1559 29.7389 62.0427C29.6806 61.9295 29.6006 61.8288 29.5034 61.7465C29.4062 61.6642 29.2937 61.6019 29.1724 61.563L27.7625 61.1131C20.9106 58.8343 17.5729 51.5306 18.5077 43.6624C18.5366 43.4078 18.4635 43.152 18.3044 42.9511C18.1453 42.7501 17.9131 42.6203 17.6586 42.5901C17.4041 42.5599 17.1479 42.6316 16.9462 42.7897C16.7444 42.9477 16.6134 43.1792 16.5819 43.4336ZM50.3118 44.7272C50.5077 43.4743 50.6076 42.2108 50.6076 40.9706C50.6076 26.8207 39.3707 24.1783 39.2737 24.1075C39.0275 24.0332 38.7618 24.0597 38.5351 24.1813C38.3084 24.3029 38.1393 24.5095 38.065 24.7558C37.9907 25.002 38.0172 25.2677 38.1388 25.4944C38.2604 25.7211 38.467 25.8902 38.7133 25.9645C38.8102 26.0421 48.6682 28.2811 48.6682 40.9706C48.6682 42.11 48.576 43.2736 48.3957 44.4275C48.3558 44.6816 48.4185 44.9411 48.57 45.149C48.7215 45.3569 48.9493 45.496 49.2034 45.5359C49.4575 45.5758 49.7171 45.513 49.9249 45.3616C50.1328 45.2101 50.2719 44.9813 50.3118 44.7272ZM49.377 48.6486C49.4208 48.5266 49.4396 48.3971 49.4324 48.2676C49.4253 48.1382 49.3922 48.0115 49.3352 47.8951C49.2783 47.7787 49.1985 47.6749 49.1007 47.5898C49.003 47.5047 48.8891 47.4401 48.7659 47.3998C48.6427 47.3594 48.5127 47.3442 48.3835 47.355C48.2544 47.3658 48.1287 47.4024 48.0139 47.4625C47.8991 47.5227 47.7975 47.6054 47.7152 47.7055C47.6329 47.8056 47.5715 47.9212 47.5346 48.0455L47.4628 48.2656C44.9756 55.7167 38.4728 62.0615 31.0013 61.7085C30.745 61.6992 30.4953 61.7908 30.3058 61.9636C30.1164 62.1364 30.0022 62.3766 29.9879 62.6326C29.9821 62.7598 30.0013 62.887 30.0446 63.0067C30.0878 63.1265 30.1543 63.2366 30.2401 63.3307C30.3259 63.4248 30.4294 63.5011 30.5447 63.5552C30.66 63.6093 30.7848 63.6401 30.912 63.646C39.2883 64.027 46.5504 57.1228 49.3033 48.8746L49.377 48.6486Z" fill="black"/>
<path d="M32.0407 28.444C27.5384 29.9344 23.0109 34.5977 21.3353 41.3478C21.3047 41.4714 21.2988 41.5999 21.3179 41.7258C21.337 41.8517 21.3806 41.9727 21.4465 42.0817C21.5123 42.1908 21.599 42.2858 21.7015 42.3613C21.804 42.4369 21.9205 42.4915 22.0441 42.5221C22.1678 42.5526 22.2962 42.5585 22.4221 42.5394C22.5481 42.5204 22.669 42.4767 22.7781 42.4108C22.8871 42.345 22.9821 42.2584 23.0577 42.1558C23.1332 42.0533 23.1878 41.9369 23.2184 41.8132C24.7273 35.7322 28.7399 31.58 32.6507 30.2854C32.7715 30.2455 32.8834 30.1822 32.9798 30.099C33.0762 30.0158 33.1552 29.9145 33.2124 29.8007C33.2696 29.687 33.3038 29.5631 33.3131 29.4361C33.3223 29.3091 33.3065 29.1816 33.2664 29.0607C33.2269 28.9394 33.1638 28.8271 33.0807 28.7303C32.9976 28.6336 32.8961 28.5542 32.7821 28.4969C32.6681 28.4395 32.544 28.4053 32.4167 28.3963C32.2894 28.3872 32.1617 28.4034 32.0407 28.444ZM20.7418 45.3671C20.7273 45.6668 20.7214 45.9645 20.7214 46.2612C20.7214 57.6125 29.3062 59.0399 29.4613 59.1688C29.599 59.2125 30.8422 59.355 31.5995 59.355C31.7275 59.355 31.8545 59.3511 31.9816 59.3473C32.1088 59.3426 32.234 59.313 32.3498 59.26C32.4656 59.207 32.5699 59.1317 32.6566 59.0384C32.7433 58.9451 32.8108 58.8357 32.8552 58.7163C32.8996 58.5969 32.92 58.4699 32.9154 58.3427C32.896 57.8074 32.3985 57.3865 31.9117 57.4088C27.1816 57.6028 22.6608 53.5533 22.6608 46.2612C22.6608 45.9955 22.6666 45.7269 22.6802 45.4573C22.6861 45.3301 22.6668 45.203 22.6236 45.0832C22.5803 44.9634 22.5139 44.8534 22.428 44.7593C22.3422 44.6652 22.2387 44.5889 22.1234 44.5348C22.0081 44.4807 21.8833 44.4498 21.7561 44.444C21.1801 44.4256 20.767 44.8309 20.7418 45.3671ZM36.2443 27.9184C36.1172 27.9069 35.989 27.9208 35.8673 27.9594C35.7456 27.998 35.6329 28.0605 35.5356 28.1432C35.4384 28.2259 35.3586 28.3272 35.301 28.4411C35.2433 28.555 35.209 28.6793 35.2 28.8067C35.0991 30.0702 36.7282 29.8598 36.9668 29.9383C37.1025 30.0314 44.2327 31.2261 44.3617 40.7475C44.365 41.0025 44.4686 41.2459 44.6501 41.4251C44.8316 41.6042 45.0764 41.7046 45.3314 41.7046H45.344C45.4714 41.703 45.5973 41.6762 45.7143 41.6259C45.8314 41.5756 45.9375 41.5027 46.0263 41.4114C46.1152 41.32 46.1852 41.2121 46.2324 41.0937C46.2795 40.9753 46.3029 40.8488 46.3011 40.7213C46.2138 34.2389 42.6657 28.5894 36.2443 27.9184ZM36.0863 58.3669C41.2548 56.0804 44.832 50.491 45.9326 44.7737C45.9812 44.521 45.9274 44.2594 45.7831 44.0463C45.6388 43.8333 45.4158 43.6863 45.1631 43.6377C44.9105 43.5891 44.6488 43.6428 44.4358 43.7871C44.2227 43.9314 44.0757 44.1545 44.0271 44.4071C43.0361 49.5601 39.8419 54.5851 35.3028 56.5933C35.0674 56.6972 34.883 56.8904 34.7901 57.1302C34.6972 57.3701 34.7034 57.637 34.8073 57.8724C34.9112 58.1077 35.1043 58.2921 35.3441 58.385C35.584 58.4779 35.851 58.4708 36.0863 58.3669Z" fill="black"/>
<path d="M32.9987 32.6641C32.8799 32.7099 32.7713 32.7787 32.6791 32.8666C32.5869 32.9544 32.5128 33.0595 32.4612 33.1759C32.4096 33.2924 32.3815 33.4178 32.3784 33.5451C32.3753 33.6724 32.3973 33.7991 32.4431 33.9179C32.4889 34.0367 32.5577 34.1454 32.6456 34.2376C32.7334 34.3298 32.8385 34.4038 32.9549 34.4554C33.0714 34.507 33.1968 34.5352 33.3241 34.5383C33.4514 34.5414 33.5781 34.5194 33.6969 34.4736C37.533 32.9899 40.0562 36.5031 40.0562 40.9802C40.0562 43.4103 39.3347 46.1846 37.8957 48.5526C37.7621 48.7724 37.7213 49.0362 37.7822 49.2861C37.8431 49.5359 38.0008 49.7513 38.2206 49.885C38.4403 50.0186 38.7041 50.0594 38.954 49.9985C39.2039 49.9376 39.4193 49.7799 39.5529 49.5601C41.0715 47.0612 41.9956 43.9746 41.9956 40.9802C41.9956 34.6491 37.886 30.7761 32.9987 32.6651V32.6641ZM29.4816 35.069C26.6366 37.9703 25.0269 42.3174 25.0269 46.2544C25.0269 54.3165 31.4026 57.6464 36.9105 52.7659C37.0078 52.6821 37.0874 52.5797 37.1448 52.4648C37.2022 52.3499 37.2362 52.2248 37.2448 52.0966C37.2534 51.9685 37.2365 51.8399 37.195 51.7183C37.1535 51.5968 37.0883 51.4847 37.0032 51.3885C36.918 51.2924 36.8146 51.2141 36.6989 51.1583C36.5833 51.1024 36.4577 51.0701 36.3294 51.0632C36.2012 51.0563 36.0729 51.0749 35.9519 51.118C35.8309 51.1611 35.7197 51.2278 35.6247 51.3143C31.1679 55.2629 26.9662 52.315 26.9662 46.2544C26.9662 42.8459 28.3655 38.9768 30.8664 36.4275C30.9576 36.337 31.03 36.2293 31.0793 36.1106C31.1286 35.992 31.1538 35.8647 31.1534 35.7361C31.153 35.6076 31.1271 35.4805 31.0772 35.3621C31.0273 35.2437 30.9543 35.1364 30.8626 35.0464C30.7708 34.9564 30.6621 34.8856 30.5427 34.838C30.4233 34.7904 30.2957 34.7671 30.1672 34.7693C30.0387 34.7715 29.9119 34.7992 29.7942 34.8508C29.6765 34.9024 29.5703 34.9759 29.4816 35.069Z" fill="black"/>
<path d="M29.5951 48.4033C30.91 53.3914 35.4501 49.5417 37.0356 44.7941C37.7318 42.7073 37.8734 40.5342 37.4264 38.8304C37.1035 37.6038 36.4896 36.7708 35.7449 36.5458C35.6849 36.5275 35.6231 36.5152 35.5607 36.509C35.5029 36.5044 35.445 36.5015 35.3871 36.5002C33.7435 36.5002 31.2106 38.7722 29.9859 42.4406C29.2896 44.5284 29.1471 46.7015 29.5961 48.4042L29.5951 48.4033ZM31.8244 43.0554C32.8242 40.0619 34.5725 38.7373 35.2019 38.4842C35.2989 38.6258 35.4375 38.8935 35.551 39.323C35.9049 40.6709 35.775 42.4416 35.1961 44.1802C34.1982 47.1679 32.4567 48.4944 31.8089 48.7504C31.7119 48.5972 31.5801 48.3238 31.4715 47.9107C31.1166 46.5628 31.2455 44.7931 31.8244 43.0554Z" fill="black"/>
</svg>
