<svg width="50" height="55" viewBox="0 0 50 55" fill="none" xmlns="http://www.w3.org/2000/svg">
<path d="M48.38 8.89685L40.38 0.896851H9.59L1.59 8.89685L25 34.3769L48.38 8.89685ZM25 9.89685H31.61L25 29.7369L18.39 9.89685H25ZM19.66 7.89685L25 3.22685L30.34 7.89685H19.66ZM33.72 9.89685H44.72L27.43 28.7668L33.72 9.89685ZM35.41 7.89685L40 3.30685L44.59 7.89685H35.41ZM33 7.52685L27.66 2.89685H37.59L33 7.52685ZM17.1 7.52685L12.41 2.89685H22.34L17.1 7.52685ZM14.59 7.89685H5.41L10 3.30685L14.59 7.89685ZM16.28 9.89685L22.57 28.7668L5.27 9.89685H16.28ZM49 41.4669C47.48 39.9669 44.78 39.9569 44.49 39.9669L29 39.8969C28.9136 38.5492 28.3499 37.2765 27.41 36.3069C26.4919 35.4235 25.2738 34.9199 24 34.8969H13C11.7765 34.8664 10.5628 35.1217 9.45528 35.6425C8.34776 36.1633 7.37695 36.9352 6.62 37.8969H0V54.8969H22.23C35.69 54.8969 50 51.0368 50 43.8969C50.0063 43.4452 49.9209 42.997 49.749 42.5794C49.5771 42.1617 49.3223 41.7832 49 41.4669ZM2 52.8969V39.8969H5.9L6 52.8969H2ZM22.23 52.8969H8V39.3969C8.55792 38.5953 9.30794 37.9465 10.1814 37.5097C11.0549 37.073 12.024 36.8623 13 36.8969H24C24.7258 36.9295 25.4152 37.2244 25.94 37.7269C26.5073 38.3175 26.8596 39.0818 26.94 39.8969H19V41.8969H27.93L44.5 41.9669C45.6052 41.9335 46.6919 42.256 47.6 42.8869C47.7322 43.0168 47.836 43.1728 47.9049 43.3449C47.9737 43.517 48.0061 43.7016 48 43.8869C48 48.7769 36.2 52.8969 22.23 52.8969Z" fill="black"/>
</svg>
