<svg width="64" height="65" viewBox="0 0 64 65" fill="none" xmlns="http://www.w3.org/2000/svg">
<path d="M31.0859 29.6252C29.7626 29.6252 28.6861 30.7019 28.6861 32.025V35.3015C28.6861 35.779 29.0732 36.1664 29.551 36.1664C30.0288 36.1664 30.4159 35.779 30.4159 35.3015V34.0284H31.7556V35.3015C31.7556 35.779 32.1427 36.1664 32.6205 36.1664C33.0982 36.1664 33.4854 35.779 33.4854 35.3015V32.025C33.4854 30.7017 32.4091 29.6252 31.0859 29.6252ZM30.4159 32.2986V32.025C30.4159 31.6556 30.7165 31.355 31.0859 31.355C31.4552 31.355 31.7556 31.6556 31.7556 32.025V32.2986H30.4159ZM34.4496 29.6252C34.9274 29.6252 35.3145 30.0126 35.3145 30.4901V35.3015C35.3145 35.779 34.9274 36.1664 34.4496 36.1664C33.9719 36.1664 33.5848 35.779 33.5848 35.3015V30.4901C33.5848 30.0126 33.9719 29.6252 34.4496 29.6252ZM53.801 28.2159C53.801 26.5154 53.1389 24.9169 51.9364 23.7147C51.0223 22.8004 49.9085 22.1849 48.73 21.9304C48.7362 21.8256 48.7396 21.7197 48.7396 21.6145C48.7396 18.7919 46.4431 16.4951 43.6203 16.4951C43.6106 16.4951 43.6011 16.4951 43.5915 16.4951C42.7725 14.6725 40.9707 13.4877 38.926 13.4877C36.1034 13.4877 33.8069 15.7845 33.8069 18.6071L33.8066 26.3279H32.8649V24.856C32.8649 24.3785 32.4777 23.9911 32 23.9911C31.5222 23.9911 31.1351 24.3785 31.1351 24.856V26.3279H30.1936V24.856C30.1936 24.3785 29.8065 23.9911 29.3288 23.9911C28.851 23.9911 28.4639 24.3785 28.4639 24.856V26.3279H26.2969C25.8191 26.3279 25.432 26.7152 25.432 27.1927V28.2885H23.9601C23.4824 28.2885 23.0952 28.6759 23.0952 29.1534C23.0952 29.6309 23.4824 30.0182 23.9601 30.0182H25.432V30.7835H23.9601C23.4824 30.7835 23.0952 31.1709 23.0952 31.6484C23.0952 32.1259 23.4824 32.5132 23.9601 32.5132H25.432V33.2785H23.9601C23.4824 33.2785 23.0952 33.6659 23.0952 34.1434C23.0952 34.6209 23.4824 35.0082 23.9601 35.0082H25.432V35.7735H23.9601C23.4824 35.7735 23.0952 36.1609 23.0952 36.6384C23.0952 37.1159 23.4824 37.5032 23.9601 37.5032H25.432V38.5995C25.432 39.077 25.8191 39.4644 26.2969 39.4644H28.4639L28.4636 47.1851C28.4636 49.0539 26.9431 50.5742 25.0742 50.5742C23.8699 50.5742 22.7924 49.9537 22.1877 48.9679C22.7485 48.7562 23.27 48.4431 23.7302 48.044C24.0903 48.2172 24.4885 48.3226 24.9141 48.3226C26.4305 48.3226 27.6641 47.089 27.6641 45.5726C27.6641 44.0562 26.4305 42.8226 24.9141 42.8226C23.3975 42.8226 22.1639 44.0562 22.1639 45.5726C22.1639 46.0254 22.2842 46.4464 22.4789 46.8234C21.8818 47.2975 21.1484 47.567 20.38 47.567C18.5109 47.567 16.9904 46.0467 16.9904 44.1779C16.9904 44.0976 16.9996 44.0184 17.0053 43.9387C17.9835 43.8242 18.9135 43.4859 19.7406 42.9411C20.0013 43.0232 20.2731 43.0799 20.5605 43.0799C22.0771 43.0799 23.3107 41.8462 23.3107 40.3299C23.3107 38.8135 22.0771 37.5799 20.5605 37.5799C19.0441 37.5799 17.8105 38.8135 17.8105 40.3299C17.8105 40.8722 17.9735 41.3752 18.2458 41.8017C17.6343 42.0945 16.967 42.2534 16.2752 42.2559C15.1921 42.1955 14.1318 41.6996 13.2869 40.8547C11.4795 39.0467 11.4795 36.1054 13.2866 34.2979C13.538 34.0467 13.8232 33.8244 14.1344 33.638C14.3947 33.482 14.5544 33.2005 14.5544 32.8965C14.5544 32.5925 14.3947 32.3109 14.1344 32.155C13.8241 31.9692 13.5389 31.7467 13.287 31.4951C12.4114 30.6195 11.9291 29.4551 11.9291 28.2164C11.9291 26.9782 12.4114 25.8137 13.287 24.9382C14.1321 24.0927 15.1925 23.5964 16.2754 23.5365C16.9334 23.5389 17.5679 23.6875 18.1555 23.9536C17.9428 24.3439 17.8107 24.7842 17.8107 25.2591C17.8107 26.7755 19.0444 28.0091 20.5607 28.0091C22.0774 28.0091 23.311 26.7755 23.311 25.2591C23.311 23.7427 22.0774 22.5091 20.5607 22.5091C20.1959 22.5091 19.8489 22.584 19.53 22.7135C18.7569 22.2472 17.9004 21.9582 17.0055 21.8535C17 21.774 16.9906 21.6949 16.9906 21.6149C16.9906 19.7461 18.5111 18.2252 20.3803 18.2252C21.1155 18.2252 21.8174 18.4745 22.4004 18.9104C22.2505 19.2495 22.164 19.6225 22.164 20.0164C22.164 21.5327 23.3976 22.7664 24.9142 22.7664C26.4306 22.7664 27.6642 21.5327 27.6642 20.0164C27.6642 18.5 26.4306 17.2664 24.9142 17.2664C24.428 17.2664 23.9776 17.4039 23.5809 17.6261C23.1578 17.2861 22.6895 17.0135 22.1881 16.8244C22.7929 15.8385 23.87 15.218 25.0744 15.218C26.9431 15.218 28.4638 16.7389 28.4638 18.6076L28.464 22.2427C28.464 22.7202 28.8514 23.1076 29.3289 23.1076C29.8066 23.1076 30.1938 22.7202 30.1938 22.2427L30.1935 18.6076C30.1935 15.785 27.897 13.4882 25.0744 13.4882C23.0296 13.4882 21.2277 14.6729 20.4089 16.4956C20.3993 16.4956 20.3897 16.4956 20.3801 16.4956C17.5573 16.4956 15.2607 18.7924 15.2607 21.615C15.2607 21.7202 15.2641 21.8261 15.2704 21.9309C14.0919 22.1854 12.9781 22.8007 12.064 23.7152C10.8616 24.9174 10.1994 26.5159 10.1994 28.2164C10.1994 29.9174 10.8615 31.5159 12.0642 32.7186C12.1248 32.7789 12.1868 32.8385 12.25 32.8965C12.1866 32.9545 12.1244 33.0136 12.0639 33.0744C9.58187 35.5564 9.58187 39.5957 12.0639 42.0777C12.9777 42.9921 14.0915 43.607 15.2705 43.8615C15.264 43.9667 15.2606 44.0721 15.2606 44.178C15.2606 47.0006 17.5571 49.2967 20.38 49.2967C20.3896 49.2967 20.3991 49.2967 20.4084 49.2967C21.2271 51.1194 23.0291 52.3041 25.0742 52.3041C27.8969 52.3041 30.1934 50.008 30.1934 47.1854L30.1936 39.4646H31.1351V40.9365C31.1351 41.414 31.5222 41.8014 32 41.8014C32.4777 41.8014 32.8649 41.414 32.8649 40.9365V39.4646H33.8066V40.9365C33.8066 41.414 34.1938 41.8014 34.6715 41.8014C35.1493 41.8014 35.5364 41.414 35.5364 40.9365V39.4646H37.7034C38.1811 39.4646 38.5682 39.0772 38.5682 38.5997V37.5035H40.0404C40.5181 37.5035 40.9053 37.1161 40.9053 36.6386C40.9053 36.1611 40.5181 35.7737 40.0404 35.7737H38.5682V35.0085H40.0404C40.5181 35.0085 40.9053 34.6211 40.9053 34.1436C40.9053 33.6661 40.5181 33.2787 40.0404 33.2787H38.5682V32.5135H40.0404C40.5181 32.5135 40.9053 32.1261 40.9053 31.6486C40.9053 31.1711 40.5181 30.7837 40.0404 30.7837H38.5682V30.0185H40.0404C40.5181 30.0185 40.9053 29.6311 40.9053 29.1536C40.9053 28.6761 40.5181 28.2887 40.0404 28.2887H38.5682V27.193C38.5682 26.7155 38.1811 26.3281 37.7034 26.3281H35.5364L35.5366 18.6074C35.5366 16.7386 37.0571 15.2177 38.926 15.2177C40.1304 15.2177 41.2075 15.8382 41.8122 16.8241C41.3155 17.0115 40.8515 17.2809 40.4315 17.6162C40.0389 17.4001 39.595 17.2661 39.116 17.2661C37.5996 17.2661 36.366 18.4997 36.366 20.0161C36.366 21.5325 37.5996 22.7661 39.116 22.7661C40.6326 22.7661 41.8662 21.5325 41.8662 20.0161C41.8662 19.6157 41.7759 19.2379 41.6214 18.8944C42.2004 18.4685 42.8939 18.225 43.6203 18.225C45.4894 18.225 47.0099 19.7459 47.0099 21.6146C47.0099 21.6946 47.0006 21.7737 46.995 21.8532C46.104 21.9575 45.2515 22.2446 44.4814 22.7072C44.1675 22.5824 43.8276 22.5087 43.4696 22.5087C41.9532 22.5087 40.7196 23.7424 40.7196 25.2587C40.7196 26.7751 41.9532 28.0087 43.4696 28.0087C44.9862 28.0087 46.2199 26.7751 46.2199 25.2587C46.2199 24.7797 46.0858 24.3357 45.8695 23.9431C46.4504 23.684 47.076 23.5385 47.7251 23.5361C48.8079 23.596 49.8683 24.0924 50.7135 24.9379C51.589 25.8135 52.0714 26.9779 52.0714 28.216C52.0714 29.4547 51.5891 30.6191 50.7139 31.4941C50.4616 31.7464 50.1764 31.9687 49.8661 32.1546C49.6057 32.3106 49.4461 32.5921 49.4461 32.8961C49.4461 33.2001 49.6057 33.4817 49.8661 33.6376C50.1772 33.824 50.4624 34.0464 50.7135 34.297C52.5209 36.105 52.5209 39.0465 50.7135 40.8544C49.8686 41.6992 48.8083 42.1952 47.7251 42.2555C47.0424 42.253 46.3843 42.0969 45.7793 41.8115C46.0553 41.383 46.22 40.876 46.22 40.3295C46.22 38.8131 44.9864 37.5795 43.4697 37.5795C41.9534 37.5795 40.7197 38.8131 40.7197 40.3295C40.7197 41.8459 41.9534 43.0795 43.4697 43.0795C43.7497 43.0795 44.0148 43.0251 44.2695 42.947C45.0939 43.4881 46.0206 43.8245 46.9953 43.9384C47.0008 44.018 47.0101 44.0972 47.0101 44.1775C47.0101 46.0462 45.4896 47.5666 43.6205 47.5666C42.8611 47.5666 42.1364 47.3024 41.543 46.8387C41.7427 46.4579 41.8666 46.0312 41.8666 45.5722C41.8666 44.0559 40.633 42.8222 39.1164 42.8222C37.6 42.8222 36.3664 44.0559 36.3664 45.5722C36.3664 47.0886 37.6 48.3222 39.1164 48.3222C39.5346 48.3222 39.927 48.2211 40.2822 48.0534C40.7396 48.4476 41.2567 48.7576 41.8129 48.9675C41.2081 49.9534 40.1308 50.5739 38.9264 50.5739C37.0576 50.5739 35.537 49.0536 35.537 47.1847L35.5368 43.5496C35.5368 43.0721 35.1494 42.6847 34.6719 42.6847C34.1941 42.6847 33.807 43.0721 33.807 43.5496L33.8073 47.1847C33.8073 50.0074 36.1038 52.3035 38.9264 52.3035C40.9714 52.3035 42.7735 51.1189 43.5923 49.2961C43.6015 49.2961 43.6111 49.2961 43.6206 49.2961C46.4435 49.2961 48.74 47 48.74 44.1774C48.74 44.0715 48.7366 43.9662 48.7301 43.8609C49.9091 43.6064 51.0229 42.9915 51.9367 42.0771C54.4187 39.5951 54.4188 35.5557 51.9365 33.0731C51.876 33.0129 51.814 32.9537 51.7508 32.8957C51.8141 32.8372 51.876 32.7781 51.9369 32.7172C53.1387 31.5154 53.801 29.9169 53.801 28.2159ZM24.9141 44.552C25.4766 44.552 25.9344 45.0097 25.9344 45.5722C25.9344 46.1347 25.4766 46.5925 24.9141 46.5925C24.3514 46.5925 23.8936 46.1347 23.8936 45.5722C23.8936 45.0097 24.3514 44.552 24.9141 44.552ZM24.9141 18.9957C25.4766 18.9957 25.9344 19.4535 25.9344 20.016C25.9344 20.5785 25.4766 21.0362 24.9141 21.0362C24.3514 21.0362 23.8936 20.5785 23.8936 20.016C23.8936 19.4535 24.3514 18.9957 24.9141 18.9957ZM21.5811 25.2586C21.5811 25.8211 21.1234 26.2789 20.5606 26.2789C19.9981 26.2789 19.5404 25.8211 19.5404 25.2586C19.5404 24.6961 19.9981 24.2384 20.5606 24.2384C21.1233 24.2384 21.5811 24.6961 21.5811 25.2586ZM20.5605 39.3094C21.1232 39.3094 21.581 39.7671 21.581 40.3296C21.581 40.8921 21.1232 41.3499 20.5605 41.3499C19.998 41.3499 19.5403 40.8921 19.5403 40.3296C19.5403 39.7671 19.998 39.3094 20.5605 39.3094ZM36.8384 37.7344H27.1619V28.0576H36.8384V37.7344ZM39.116 21.0362C38.5535 21.0362 38.0957 20.5785 38.0957 20.016C38.0957 19.4535 38.5535 18.9957 39.116 18.9957C39.6788 18.9957 40.1365 19.4535 40.1365 20.016C40.1365 20.5785 39.6788 21.0362 39.116 21.0362ZM43.4696 26.2789C42.9071 26.2789 42.4494 25.8211 42.4494 25.2586C42.4494 24.6961 42.9071 24.2384 43.4696 24.2384C44.0324 24.2384 44.4901 24.6961 44.4901 25.2586C44.4901 25.8211 44.0324 26.2789 43.4696 26.2789ZM39.116 46.5925C38.5535 46.5925 38.0957 46.1347 38.0957 45.5722C38.0957 45.0097 38.5535 44.552 39.116 44.552C39.6788 44.552 40.1365 45.0097 40.1365 45.5722C40.1365 46.1347 39.6788 46.5925 39.116 46.5925ZM42.4494 40.3296C42.4494 39.7671 42.9071 39.3094 43.4696 39.3094C44.0324 39.3094 44.4901 39.7671 44.4901 40.3296C44.4901 40.8921 44.0324 41.3499 43.4696 41.3499C42.9071 41.3499 42.4494 40.8921 42.4494 40.3296ZM63.6387 28.0762C63.572 27.6331 63.174 27.3127 62.732 27.342L58.0994 27.6201C57.42 24.2305 56.1056 21.0594 54.1835 18.173L57.6554 15.0952C57.9901 14.7985 58.0434 14.2957 57.7779 13.9354C55.8601 11.3324 53.5667 9.03899 50.9609 7.11887C50.6011 6.85249 50.0978 6.90487 49.8006 7.24099L46.7224 10.7134C43.8181 8.78437 40.5236 7.43074 37.11 6.76462L37.483 2.17224C37.5199 1.71837 37.1984 1.31412 36.7482 1.24712C33.6077 0.779743 30.3757 0.781993 27.2516 1.24712C26.8015 1.31412 26.4802 1.71899 26.5171 2.17224L26.8901 6.76462C23.4769 7.43074 20.1824 8.78374 17.2778 10.7134L14.1995 7.24099C13.9019 6.90487 13.3983 6.85249 13.0393 7.11887C10.4334 9.03887 8.14 11.3322 6.22225 13.9354C5.95675 14.2957 6.01 14.7985 6.34475 15.0952L9.81662 18.173C7.89462 21.0592 6.58013 24.2304 5.90075 27.6201L1.26813 27.342C0.82725 27.3139 0.428 27.6342 0.36125 28.0762C0.121625 29.6629 0 31.2845 0 32.896C0 34.5091 0.121625 36.1314 0.3615 37.7164C0.42825 38.159 0.826 38.4839 1.26838 38.45L5.89962 38.1719C6.57925 41.5621 7.894 44.7332 9.81625 47.6195L6.34525 50.6966C6.0105 50.9934 5.95725 51.4967 6.22275 51.8565C8.14313 54.4624 10.4364 56.7557 13.0398 58.6741C13.399 58.9387 13.9026 58.8859 14.2 58.5514L17.2778 55.0784C20.1637 57.0006 23.3355 58.3154 26.7249 58.995L26.4465 63.6274C26.4195 64.0739 26.7379 64.4675 27.1805 64.5345C28.7666 64.7744 30.3885 64.896 32.0006 64.896C33.6085 64.896 35.2304 64.7744 36.8205 64.5345C37.2631 64.4675 37.5817 64.0739 37.5547 63.6274L37.276 58.995C40.6654 58.3154 43.8371 57.0006 46.7231 55.0784L49.8009 58.5514C50.0979 58.8859 50.6012 58.9399 50.9611 58.6741C53.5645 56.7557 55.8577 54.4624 57.7781 51.8565C58.0436 51.4967 57.9904 50.9934 57.6556 50.6966L54.1846 47.6195C56.1069 44.7337 57.4216 41.5621 58.1016 38.1719L62.7325 38.45C63.1759 38.4855 63.5726 38.1589 63.6393 37.7164C63.8789 36.1325 64.0005 34.5102 64.0005 32.896C64 31.2834 63.8784 29.6617 63.6387 28.0762ZM62.0364 36.6752L57.4421 36.3994C57.008 36.3712 56.6121 36.682 56.5379 37.1167C55.9098 40.793 54.4951 44.2057 52.3329 47.2604C52.0778 47.6201 52.135 48.1145 52.4649 48.4067L55.9089 51.4596C54.3545 53.4585 52.5615 55.2519 50.564 56.8047L47.5104 53.3594C47.2176 53.0294 46.7229 52.972 46.3634 53.227C43.3085 55.3897 39.896 56.8041 36.2209 57.4314C35.7859 57.5057 35.4767 57.8954 35.5033 58.3356L35.7798 62.9314C33.2719 63.2439 30.7181 63.2421 28.2206 62.9319L28.4967 58.3356C28.5233 57.8952 28.2141 57.5056 27.7791 57.4314C24.104 56.8041 20.6916 55.3897 17.6366 53.227C17.2771 52.9719 16.7821 53.0294 16.4896 53.3594L13.4361 56.8047C11.4386 55.2519 9.64563 53.4585 8.09125 51.4596L11.5352 48.4067C11.8652 48.1145 11.9224 47.6201 11.6672 47.2604C9.50513 44.2057 8.09037 40.793 7.46263 37.1167C7.38825 36.6821 6.9925 36.373 6.55837 36.3994L1.96375 36.6752C1.80813 35.4264 1.7295 34.1584 1.7295 32.896C1.7295 31.6347 1.808 30.3667 1.96375 29.1167L6.55975 29.3926C6.99788 29.4219 7.39 29.11 7.464 28.6752C8.0915 24.9996 9.506 21.5869 11.6675 18.5322C11.9226 18.1725 11.8654 17.6781 11.5355 17.3859L8.09125 14.3319C9.64388 12.3347 11.437 10.5419 13.4361 8.98724L16.4899 12.4321C16.7833 12.7621 17.2774 12.819 17.6369 12.5645C20.6976 10.3979 24.2659 8.93387 27.9552 8.33137C28.4001 8.25874 28.7142 7.85674 28.678 7.40799L28.3078 2.84999C30.7493 2.55274 33.2405 2.55274 35.6926 2.84999L35.3224 7.40737C35.286 7.85612 35.6003 8.25812 36.0448 8.33074C39.7347 8.93374 43.3029 10.3977 46.3635 12.5644C46.723 12.8189 47.2176 12.762 47.5105 12.432L50.5643 8.98712C52.5634 10.5417 54.3565 12.3345 55.9091 14.3317L52.4646 17.3857C52.1346 17.678 52.0775 18.1724 52.3322 18.5321C54.4941 21.5867 55.9085 24.9995 56.5361 28.6751C56.6101 29.1097 57.0029 29.4234 57.4404 29.3925L62.0364 29.1166C62.1917 30.366 62.2704 31.6335 62.2704 32.8959C62.2702 34.1595 62.1917 35.4275 62.0364 36.6752Z" fill="black"/>
</svg>
