<svg width="66" height="73" viewBox="0 0 66 73" fill="none" xmlns="http://www.w3.org/2000/svg">
<path d="M1.67654 36.0059C1.46405 36.0132 1.25221 35.9781 1.05314 35.9027C0.85406 35.8273 0.671642 35.713 0.516306 35.5664C0.358821 35.4148 0.232627 35.2332 0.145006 35.032C0.057385 34.8309 0.0100735 34.6142 0.00580197 34.3945C-0.0011583 34.1786 0.0341845 33.9634 0.109801 33.7612C0.185418 33.5591 0.299818 33.3741 0.446435 33.2167C0.593051 33.0594 0.768995 32.9328 0.964164 32.8444C1.15933 32.7559 1.36988 32.7072 1.58372 32.7012L6.60174 32.5254C7.03128 32.5148 7.44783 32.6746 7.76198 32.9707C7.99546 33.1937 8.15849 33.4814 8.23058 33.7977C8.30268 34.1139 8.28062 34.4447 8.16718 34.7483C8.05375 35.052 7.85399 35.315 7.59302 35.5043C7.33204 35.6937 7.02148 35.8009 6.70036 35.8125L1.67654 35.9824V36.0059ZM39.506 24.5801C39.9286 24.5733 40.349 24.6427 40.7475 24.7852C41.5635 25.0739 42.2871 25.58 42.8417 26.25C43.4496 26.9617 43.8316 27.8416 43.9381 28.7754C43.9866 29.245 43.9631 29.7193 43.8685 30.1816C44.2866 30.5551 44.6448 30.992 44.9301 31.4766C45.3339 32.1717 45.535 32.9679 45.5102 33.7734C45.4808 34.6226 45.1909 35.4416 44.6807 36.1172C44.2946 36.6338 43.8237 37.0797 43.2884 37.4355C43.3522 38.5792 43.0402 39.7121 42.4008 40.6582C41.8129 41.5927 40.8827 42.2542 39.8135 42.498C39.528 43.4961 38.8782 44.3476 37.9952 44.8805C37.1123 45.4134 36.062 45.5881 35.0565 45.3691C34.6071 45.2409 34.1896 45.0179 33.8317 44.715C33.4737 44.412 33.1833 44.0358 32.9797 43.6113C32.7377 44.0693 32.4002 44.4688 31.9906 44.7824C31.581 45.096 31.109 45.3161 30.607 45.4277C30.0836 45.5271 29.5451 45.5109 29.0285 45.3805C28.5118 45.25 28.0292 45.0083 27.6136 44.6719C26.9177 44.1361 26.4376 43.3638 26.2619 42.498C25.9043 42.483 25.5506 42.4159 25.2119 42.2988C24.416 42.0136 23.7079 41.5227 23.1583 40.875C22.5663 40.192 22.1799 39.3524 22.0445 38.4551C21.9726 37.9423 21.9902 37.4207 22.0967 36.9141C21.7201 36.5721 21.3938 36.1775 21.1279 35.7422C20.6942 35.039 20.4651 34.2269 20.4666 33.3984C20.4827 32.5108 20.7772 31.6512 21.3077 30.9434C21.6757 30.4471 22.1204 30.0138 22.6246 29.6602C22.6246 29.502 22.6246 29.3379 22.6246 29.1797C22.6644 28.0495 23.0722 26.9641 23.7848 26.0918C24.3993 25.2988 25.2847 24.766 26.2677 24.5977C26.2987 24.4461 26.3414 24.2972 26.3954 24.1523C26.7121 23.3267 27.2999 22.6359 28.0603 22.1953C28.8249 21.7323 29.7321 21.5716 30.607 21.7441C31.0817 21.8474 31.5298 22.0498 31.9225 22.3384C32.3151 22.627 32.6436 22.9954 32.8869 23.4199C33.1324 22.9962 33.4624 22.6284 33.8558 22.34C34.2492 22.0516 34.6975 21.8487 35.1725 21.7441C35.9619 21.5911 36.7792 21.7108 37.493 22.084C38.1977 22.4419 38.7797 23.0053 39.1638 23.7012C39.3095 23.9745 39.4187 24.2661 39.4886 24.5684L39.506 24.5801ZM33.8035 25.1016V41.2207C33.8772 41.3211 33.9268 41.4375 33.9485 41.5605C34.1747 42.9668 34.7781 43.6465 35.4626 43.834C35.7954 43.9066 36.14 43.9043 36.4718 43.8274C36.8037 43.7504 37.1147 43.6006 37.3828 43.3887C37.6602 43.2104 37.8927 42.9693 38.0619 42.6846C38.231 42.3998 38.3322 42.0792 38.3574 41.748C38.3574 41.0332 37.8469 40.2188 36.4546 39.5039C36.3565 39.4624 36.268 39.4009 36.1946 39.3232C36.1212 39.2455 36.0645 39.1533 36.028 39.0525C35.9915 38.9516 35.9761 38.8442 35.9827 38.737C35.9892 38.6298 36.0177 38.5252 36.0662 38.4296C36.1147 38.334 36.1822 38.2496 36.2646 38.1817C36.3469 38.1137 36.4422 38.0637 36.5446 38.0347C36.647 38.0058 36.7542 37.9985 36.8595 38.0133C36.9648 38.0282 37.0659 38.0649 37.1565 38.1211C38.6997 38.9121 39.477 39.8789 39.7787 40.8809C40.3434 40.6775 40.8264 40.2926 41.1536 39.7852C41.6639 39.0373 41.8829 38.1255 41.7685 37.2246C41.7341 37.0639 41.7509 36.8962 41.8165 36.7457C41.8822 36.5952 41.9933 36.4696 42.134 36.3867C42.6587 36.0929 43.1186 35.6942 43.4856 35.2148C43.8098 34.7948 43.9945 34.2822 44.0135 33.75C44.0207 33.2322 43.884 32.7227 43.6191 32.2793C43.3542 31.8223 43.0011 31.4238 42.5806 31.1074C42.4336 31.0132 42.3218 30.8722 42.263 30.7067C42.2041 30.5411 42.2016 30.3605 42.2558 30.1934C42.3987 29.784 42.4483 29.3474 42.4008 28.916C42.3187 28.3048 42.0627 27.7309 41.6641 27.2637C41.2907 26.8104 40.804 26.4664 40.2544 26.2676C39.9998 26.1756 39.7296 26.1358 39.4596 26.1504C39.3117 26.6586 39.0564 27.1284 38.7113 27.5273C38.6508 27.6171 38.5723 27.693 38.4809 27.7501C38.3895 27.8072 38.2873 27.8442 38.1808 27.8587C38.0743 27.8733 37.966 27.865 37.8628 27.8345C37.7597 27.804 37.6641 27.7519 37.5822 27.6816C37.5003 27.6113 37.434 27.5244 37.3876 27.4265C37.3411 27.3286 37.3156 27.2219 37.3127 27.1134C37.3097 27.0049 37.3294 26.897 37.3705 26.7967C37.4116 26.6964 37.4731 26.606 37.551 26.5312C37.8124 26.262 37.9811 25.9151 38.0323 25.5416C38.0835 25.1681 38.0144 24.7878 37.8353 24.457C37.6061 24.039 37.256 23.7016 36.8317 23.4902C36.4243 23.2729 35.9563 23.2006 35.5032 23.2852C34.8477 23.4199 34.2153 23.9707 33.8209 25.1074L33.8035 25.1016ZM37.7367 30.375C37.583 30.2495 37.4829 30.0692 37.457 29.8713C37.4311 29.6734 37.4814 29.473 37.5975 29.3115C37.7135 29.1499 37.8865 29.0395 38.0808 29.003C38.2751 28.9665 38.4758 29.0067 38.6416 29.1152C38.8041 29.2324 38.9491 29.3555 39.0883 29.4785C40.0707 30.3635 40.6757 31.5982 40.7765 32.9238C40.8788 34.232 40.5123 35.5337 39.7439 36.5918C39.6336 36.7441 39.506 36.8965 39.361 37.0605C39.2241 37.2159 39.0316 37.31 38.826 37.3221C38.6204 37.3342 38.4184 37.2633 38.2646 37.125C38.1107 36.9867 38.0176 36.7923 38.0056 36.5846C37.9936 36.377 38.0638 36.173 38.2008 36.0176C38.2973 35.909 38.3883 35.7956 38.4734 35.6777C39.0245 34.9185 39.2898 33.9858 39.2218 33.0469C39.1563 32.1232 38.7407 31.2607 38.0615 30.6387C37.9607 30.5442 37.8541 30.4561 37.7425 30.375H37.7367ZM32.2545 25.916L32.2197 25.8574C31.8485 24.3398 31.1233 23.6426 30.375 23.5137C29.8707 23.4228 29.351 23.5207 28.9131 23.7891C28.4718 23.9713 28.0984 24.289 27.8457 24.6973C27.7271 25.0788 27.7293 25.4882 27.852 25.8684C27.9747 26.2486 28.2118 26.5807 28.5302 26.8184C28.6802 26.959 28.7688 27.1541 28.7764 27.3606C28.784 27.5672 28.71 27.7684 28.5708 27.9199C28.5019 27.9949 28.419 28.0555 28.3268 28.0982C28.2347 28.1408 28.1352 28.1648 28.0339 28.1686C27.8294 28.1763 27.6302 28.1016 27.4802 27.9609C26.9428 27.4921 26.5417 26.8845 26.3199 26.2031C25.782 26.3492 25.3069 26.6705 24.9683 27.1172C24.4801 27.7256 24.203 28.479 24.1793 29.2617C24.1732 29.4988 24.1868 29.7359 24.2199 29.9707C24.2391 30.12 24.2155 30.2718 24.1517 30.4078C24.0879 30.5439 23.9868 30.6586 23.8602 30.7383C23.3515 31.0408 22.9045 31.4385 22.5434 31.9102C22.206 32.3551 22.0171 32.8967 22.0039 33.457C22.006 33.9885 22.1568 34.5085 22.439 34.957C22.6924 35.3661 23.0213 35.7221 23.4078 36.0059C23.5457 36.1034 23.6486 36.2435 23.7009 36.4052C23.7532 36.5669 23.7521 36.7413 23.6978 36.9023C23.5496 37.3389 23.5039 37.8043 23.5644 38.2617C23.6583 38.8658 23.9198 39.4306 24.3185 39.8906C24.6894 40.3268 25.1647 40.6596 25.6992 40.8574C25.9035 40.9265 26.1163 40.9659 26.3315 40.9746C26.6332 39.9668 27.4918 38.9531 29.0465 38.1387C29.1371 38.0825 29.2382 38.0458 29.3435 38.0309C29.4488 38.0161 29.556 38.0233 29.6584 38.0523C29.7608 38.0813 29.8562 38.1313 29.9385 38.1993C30.0208 38.2672 30.0884 38.3516 30.1369 38.4472C30.1854 38.5427 30.2138 38.6474 30.2204 38.7546C30.227 38.8618 30.2115 38.9692 30.175 39.07C30.1386 39.1709 30.0818 39.2631 30.0084 39.3408C29.935 39.4185 29.8465 39.48 29.7484 39.5215C28.2865 40.2773 27.7354 41.1445 27.7354 41.9062C27.7493 42.2068 27.8301 42.5004 27.9717 42.7651C28.1133 43.0299 28.3121 43.259 28.5534 43.4355C28.7944 43.633 29.0742 43.7764 29.3742 43.8562C29.6743 43.936 29.9878 43.9504 30.2938 43.8984C31.0421 43.7402 31.7673 43.043 32.1385 41.5195C32.1615 41.4272 32.2008 41.3399 32.2545 41.2617V25.916ZM26.523 29.6484C26.5965 29.5769 26.6833 29.5206 26.7783 29.4829C26.8733 29.4452 26.9748 29.4268 27.0769 29.4287C27.1789 29.4306 27.2796 29.4528 27.3732 29.494C27.4668 29.5353 27.5515 29.5947 27.6223 29.6689C27.6932 29.7432 27.7488 29.8308 27.7862 29.9268C27.8235 30.0228 27.8417 30.1253 27.8398 30.2284C27.8379 30.3315 27.816 30.4332 27.7752 30.5277C27.7344 30.6222 27.6755 30.7077 27.602 30.7793C26.9484 31.4254 26.5643 32.2996 26.5288 33.2227C26.4917 34.1847 26.8055 35.1271 27.4106 35.8711C27.539 36.0327 27.5987 36.2393 27.5764 36.4453C27.5541 36.6513 27.4517 36.84 27.2916 36.9697C27.2124 37.034 27.1214 37.0818 27.0239 37.1106C26.9263 37.1393 26.8242 37.1484 26.7232 37.1372C26.5192 37.1147 26.3324 37.0112 26.2039 36.8496C25.3615 35.799 24.9282 34.4737 24.9857 33.123C25.0322 31.7953 25.5826 30.5365 26.523 29.6074V29.6484ZM25.8617 60.7676C25.5321 60.7766 25.2113 60.6599 24.9632 60.4407C24.7151 60.2215 24.5578 59.916 24.5226 59.5849C24.4875 59.2539 24.5772 58.9216 24.7737 58.6543C24.9702 58.387 25.2593 58.2043 25.5832 58.1426C24.8348 53.8477 22.787 51.4863 20.6232 48.9844C18.9408 47.0391 17.1947 45.0176 15.814 42.041C14.4522 39.2024 13.7423 36.0899 13.7372 32.9355C13.8062 29.5317 14.6772 26.1934 16.2781 23.1973L16.3129 23.1387C18.3392 19.5849 21.4779 16.8125 25.2351 15.2578C28.1773 14.0635 31.3612 13.6032 34.517 13.916C37.6457 14.2027 40.6728 15.1852 43.3812 16.793C46.853 18.8106 49.5736 21.9228 51.1258 25.6523C52.0191 27.8398 52.5143 30.1721 52.5877 32.5371C52.6468 35.3084 52.1351 38.0619 51.0852 40.623C49.5479 44.4609 47.5174 46.8457 45.6205 49.0781C43.8801 51.1289 42.2442 53.0449 41.3392 55.9746C41.6342 56.048 41.8947 56.2226 42.0764 56.4686C42.258 56.7145 42.3494 57.0166 42.3351 57.3231C42.3207 57.6296 42.2014 57.9215 41.9975 58.149C41.7936 58.3765 41.5179 58.5254 41.2174 58.5703L40.7765 58.6348C40.6953 59.2734 40.643 59.9531 40.6198 60.6856H40.7649C40.9355 60.6617 41.1092 60.672 41.2759 60.7159C41.4425 60.7599 41.599 60.8365 41.7364 60.9415C41.8738 61.0465 41.9893 61.1778 42.0764 61.328C42.1636 61.4781 42.2206 61.644 42.2442 61.8164C42.2678 61.9888 42.2576 62.1641 42.2141 62.3325C42.1706 62.5009 42.0947 62.6589 41.9907 62.7977C41.8868 62.9364 41.7568 63.0531 41.6081 63.1411C41.4595 63.2291 41.2952 63.2867 41.1246 63.3105L40.6779 63.375V63.6387C40.7125 64.1322 40.7125 64.6276 40.6779 65.1211H40.7533C41.0895 65.0979 41.4218 65.2059 41.6816 65.4228C41.9414 65.6396 42.1091 65.9488 42.15 66.2867C42.1908 66.6246 42.1019 66.9655 41.9014 67.2392C41.701 67.5129 41.4042 67.6985 41.0723 67.7578L40.0977 67.875C39.4642 69.5769 38.2699 71.0066 36.7157 71.9238C35.7275 72.5044 34.6194 72.8454 33.4786 72.9199C32.3336 72.9765 31.1934 72.7365 30.1661 72.2227C28.867 71.5671 27.801 70.5211 27.1147 69.2285C26.9227 69.1306 26.7576 68.9863 26.6342 68.8085C26.5107 68.6306 26.4326 68.4247 26.407 68.209C26.3851 68.0342 26.3989 67.8567 26.4476 67.6875C26.2066 66.9641 26.0376 66.2182 25.9429 65.4609H25.9023C25.5576 65.5091 25.2081 65.417 24.9307 65.205C24.7934 65.0999 24.6778 64.9686 24.5907 64.8185C24.5036 64.6684 24.4466 64.5024 24.423 64.3301C24.3993 64.1577 24.4096 63.9823 24.4531 63.814C24.4965 63.6456 24.5724 63.4875 24.6764 63.3488C24.8864 63.0686 25.1979 62.8841 25.5426 62.8359L25.8558 62.7949C25.8558 62.0742 25.8558 61.4004 25.8558 60.7617L25.8617 60.7676ZM28.0255 57.791L38.6939 56.2617C39.6104 52.3535 41.5944 50.0098 43.7641 47.4727C45.5392 45.3867 47.4362 43.1602 48.8169 39.7031C49.7449 37.4552 50.1993 35.0366 50.1512 32.6016C50.0845 30.5312 49.6462 28.4903 48.8575 26.5781C47.5102 23.3505 45.1498 20.6596 42.1398 18.9199C39.7465 17.4945 37.0695 16.6239 34.3024 16.3711C31.5317 16.0952 28.7361 16.4971 26.1517 17.543C22.8992 18.8952 20.1819 21.2977 18.4245 24.375C17.0148 27.0147 16.2454 29.9546 16.1795 32.9531C16.1864 35.7409 16.817 38.4911 18.0243 40.998C19.1831 43.3296 20.6787 45.4742 22.4622 47.3613C24.9045 50.1856 27.2133 52.8574 28.0255 57.791ZM38.2878 58.9981L28.2981 60.4277C28.2981 61.0664 28.3388 61.7402 28.2981 62.4492L38.1601 61.0371C38.1601 60.3164 38.2008 59.6367 38.2588 58.9981H38.2878ZM28.4258 65.1152C28.4893 65.6149 28.5921 66.1086 28.7332 66.5918L38.2762 65.4199C38.3406 64.8892 38.3523 64.3534 38.311 63.8203V63.709L28.449 65.127L28.4258 65.1152ZM30.0907 69.0938C30.4399 69.465 30.8501 69.7723 31.3032 70.002C31.9636 70.3234 32.6946 70.4686 33.4264 70.4238C34.1851 70.3712 34.9216 70.1426 35.5786 69.7559C36.236 69.3676 36.8021 68.8398 37.2378 68.209L30.0907 69.0938ZM64.2074 30.1934C64.42 30.1706 64.635 30.1906 64.84 30.2519C65.045 30.3133 65.2359 30.415 65.4019 30.5511C65.5679 30.6872 65.7057 30.855 65.8073 31.045C65.909 31.235 65.9725 31.4434 65.9942 31.6582C66.038 32.0925 65.9092 32.5266 65.6361 32.8651C65.3631 33.2035 64.9681 33.4185 64.5381 33.4629L59.5433 33.9961C59.3302 34.0188 59.1148 33.9983 58.9096 33.9359C58.7044 33.8736 58.5136 33.7705 58.3482 33.6328C58.0931 33.4284 57.9043 33.1515 57.8064 32.8377C57.7085 32.524 57.7059 32.1878 57.7989 31.8725C57.8919 31.5573 58.0763 31.2774 58.3283 31.069C58.5803 30.8605 58.8883 30.7331 59.2126 30.7031L64.2074 30.1758V30.1934ZM54.8095 9.68554C55.0523 9.32514 55.425 9.0749 55.8479 8.98828C56.0571 8.94553 56.2725 8.94481 56.4819 8.98617C56.6913 9.02753 56.8906 9.11014 57.0683 9.22931C57.2461 9.34847 57.3989 9.50184 57.518 9.68066C57.6371 9.85948 57.7201 10.0602 57.7623 10.2715C57.8043 10.4827 57.8043 10.7002 57.7625 10.9114C57.7207 11.1226 57.6378 11.3233 57.5187 11.5019L54.7283 15.7207C54.6098 15.9014 54.457 16.0565 54.2788 16.1772C54.1005 16.2979 53.9004 16.3817 53.6899 16.4238C53.2668 16.5038 52.8296 16.4134 52.4717 16.1719C52.2923 16.0526 52.1384 15.8985 52.0189 15.7184C51.8993 15.5383 51.8166 15.3359 51.7755 15.123C51.7334 14.9115 51.7338 14.6936 51.7767 14.4822C51.8195 14.2709 51.9039 14.0704 52.025 13.8926L54.8095 9.67382V9.68554ZM33.2407 2.50195C33.247 2.06003 33.4264 1.63863 33.7396 1.33007C33.9732 1.10704 34.2668 0.958711 34.5835 0.903731C34.9003 0.848751 35.2261 0.889574 35.5199 1.02107C35.8138 1.15256 36.0626 1.36886 36.2351 1.64277C36.4076 1.91668 36.4961 2.23599 36.4894 2.56054L36.3676 7.6289C36.3752 7.85271 36.3375 8.07573 36.2569 8.28433C36.1762 8.49293 36.0543 8.68271 35.8985 8.84208C35.7428 9.00145 35.5564 9.12705 35.351 9.2112C35.1455 9.29536 34.9252 9.33629 34.7036 9.3315C34.4819 9.32671 34.2635 9.2763 34.0618 9.18335C33.8601 9.0904 33.6793 8.95687 33.5304 8.79092C33.3815 8.62497 33.2677 8.43009 33.196 8.2182C33.1242 8.00631 33.096 7.78186 33.1131 7.55859L33.2407 2.48437V2.50195ZM8.12165 10.6465C7.81831 10.346 7.64311 9.93778 7.63336 9.50876C7.6236 9.07974 7.78007 8.66383 8.06944 8.34961C8.35913 8.04569 8.75426 7.86714 9.17166 7.85156C9.60029 7.83997 10.0165 7.99761 10.3319 8.29101C11.5443 9.46289 12.7858 10.6055 14.004 11.7539C14.1639 11.9043 14.2924 12.0855 14.3821 12.2867C14.4717 12.4879 14.5207 12.7052 14.5261 12.9258C14.5358 13.3584 14.38 13.7781 14.0911 14.0977C13.7936 14.404 13.3894 14.581 12.9646 14.5908C12.5399 14.6007 12.1281 14.4427 11.817 14.1504C10.6568 13.0195 9.3515 11.7539 8.13325 10.6816L8.12165 10.6465Z" fill="#FFF5FB"/>
</svg>
